<svg width="310" height="408" viewBox="0 0 409 408" fill="none" xmlns="http://www.w3.org/2000/svg">
<rect width="409" height="408" rx="10" fill="white"/>
<rect x="36" y="361.5" width="20" height="15" rx="5" fill="#A27738"/>
<path d="M76.768 375.112C76.032 375.112 75.3707 374.984 74.784 374.728C74.208 374.461 73.7547 374.099 73.424 373.64C73.0933 373.171 72.9227 372.632 72.912 372.024H74.464C74.5173 372.547 74.7307 372.989 75.104 373.352C75.488 373.704 76.0427 373.88 76.768 373.88C77.4613 373.88 78.0053 373.709 78.4 373.368C78.8053 373.016 79.008 372.568 79.008 372.024C79.008 371.597 78.8907 371.251 78.656 370.984C78.4213 370.717 78.128 370.515 77.776 370.376C77.424 370.237 76.9493 370.088 76.352 369.928C75.616 369.736 75.024 369.544 74.576 369.352C74.1387 369.16 73.76 368.861 73.44 368.456C73.1307 368.04 72.976 367.485 72.976 366.792C72.976 366.184 73.1307 365.645 73.44 365.176C73.7493 364.707 74.1813 364.344 74.736 364.088C75.3013 363.832 75.9467 363.704 76.672 363.704C77.7173 363.704 78.5707 363.965 79.232 364.488C79.904 365.011 80.2827 365.704 80.368 366.568H78.768C78.7147 366.141 78.4907 365.768 78.096 365.448C77.7013 365.117 77.1787 364.952 76.528 364.952C75.92 364.952 75.424 365.112 75.04 365.432C74.656 365.741 74.464 366.179 74.464 366.744C74.464 367.149 74.576 367.48 74.8 367.736C75.0347 367.992 75.3173 368.189 75.648 368.328C75.9893 368.456 76.464 368.605 77.072 368.776C77.808 368.979 78.4 369.181 78.848 369.384C79.296 369.576 79.68 369.88 80 370.296C80.32 370.701 80.48 371.256 80.48 371.96C80.48 372.504 80.336 373.016 80.048 373.496C79.76 373.976 79.3333 374.365 78.768 374.664C78.2027 374.963 77.536 375.112 76.768 375.112ZM82.0786 370.584C82.0786 369.688 82.26 368.904 82.6226 368.232C82.9853 367.549 83.4813 367.021 84.1106 366.648C84.7506 366.275 85.46 366.088 86.2386 366.088C87.0066 366.088 87.6733 366.253 88.2386 366.584C88.804 366.915 89.2253 367.331 89.5026 367.832V366.232H90.9746V375H89.5026V373.368C89.2146 373.88 88.7826 374.307 88.2066 374.648C87.6413 374.979 86.98 375.144 86.2226 375.144C85.444 375.144 84.74 374.952 84.1106 374.568C83.4813 374.184 82.9853 373.645 82.6226 372.952C82.26 372.259 82.0786 371.469 82.0786 370.584ZM89.5026 370.6C89.5026 369.939 89.3693 369.363 89.1026 368.872C88.836 368.381 88.4733 368.008 88.0146 367.752C87.5666 367.485 87.0706 367.352 86.5266 367.352C85.9826 367.352 85.4866 367.48 85.0386 367.736C84.5906 367.992 84.2333 368.365 83.9666 368.856C83.7 369.347 83.5666 369.923 83.5666 370.584C83.5666 371.256 83.7 371.843 83.9666 372.344C84.2333 372.835 84.5906 373.213 85.0386 373.48C85.4866 373.736 85.9826 373.864 86.5266 373.864C87.0706 373.864 87.5666 373.736 88.0146 373.48C88.4733 373.213 88.836 372.835 89.1026 372.344C89.3693 371.843 89.5026 371.261 89.5026 370.6ZM94.8911 363.16V375H93.4351V363.16H94.8911ZM105.373 370.28C105.373 370.557 105.357 370.851 105.325 371.16H98.3166C98.37 372.024 98.6633 372.701 99.1966 373.192C99.7406 373.672 100.397 373.912 101.165 373.912C101.794 373.912 102.317 373.768 102.733 373.48C103.159 373.181 103.458 372.787 103.629 372.296H105.197C104.962 373.139 104.493 373.827 103.789 374.36C103.085 374.883 102.21 375.144 101.165 375.144C100.333 375.144 99.586 374.957 98.9246 374.584C98.274 374.211 97.762 373.683 97.3886 373C97.0153 372.307 96.8286 371.507 96.8286 370.6C96.8286 369.693 97.01 368.899 97.3726 368.216C97.7353 367.533 98.242 367.011 98.8926 366.648C99.554 366.275 100.311 366.088 101.165 366.088C101.997 366.088 102.733 366.269 103.373 366.632C104.013 366.995 104.503 367.496 104.845 368.136C105.197 368.765 105.373 369.48 105.373 370.28ZM103.869 369.976C103.869 369.421 103.746 368.947 103.501 368.552C103.255 368.147 102.919 367.843 102.493 367.64C102.077 367.427 101.613 367.32 101.101 367.32C100.365 367.32 99.7353 367.555 99.2126 368.024C98.7006 368.493 98.4073 369.144 98.3326 369.976H103.869Z" fill="#06152B"/>
<rect x="143.61" y="361.5" width="20" height="15" rx="5" fill="#D4B483"/>
<path d="M185.898 375.112C184.863 375.112 183.919 374.872 183.066 374.392C182.213 373.901 181.535 373.224 181.034 372.36C180.543 371.485 180.298 370.504 180.298 369.416C180.298 368.328 180.543 367.352 181.034 366.488C181.535 365.613 182.213 364.936 183.066 364.456C183.919 363.965 184.863 363.72 185.898 363.72C186.943 363.72 187.893 363.965 188.746 364.456C189.599 364.936 190.271 365.608 190.762 366.472C191.253 367.336 191.498 368.317 191.498 369.416C191.498 370.515 191.253 371.496 190.762 372.36C190.271 373.224 189.599 373.901 188.746 374.392C187.893 374.872 186.943 375.112 185.898 375.112ZM185.898 373.848C186.677 373.848 187.375 373.667 187.994 373.304C188.623 372.941 189.114 372.424 189.466 371.752C189.829 371.08 190.01 370.301 190.01 369.416C190.01 368.52 189.829 367.741 189.466 367.08C189.114 366.408 188.629 365.891 188.01 365.528C187.391 365.165 186.687 364.984 185.898 364.984C185.109 364.984 184.405 365.165 183.786 365.528C183.167 365.891 182.677 366.408 182.314 367.08C181.962 367.741 181.786 368.52 181.786 369.416C181.786 370.301 181.962 371.08 182.314 371.752C182.677 372.424 183.167 372.941 183.786 373.304C184.415 373.667 185.119 373.848 185.898 373.848ZM194.876 367.656C195.132 367.155 195.495 366.765 195.964 366.488C196.444 366.211 197.026 366.072 197.708 366.072V367.576H197.324C195.692 367.576 194.876 368.461 194.876 370.232V375H193.42V366.232H194.876V367.656ZM198.845 370.584C198.845 369.688 199.026 368.904 199.389 368.232C199.752 367.549 200.248 367.021 200.877 366.648C201.517 366.275 202.232 366.088 203.021 366.088C203.704 366.088 204.338 366.248 204.925 366.568C205.512 366.877 205.96 367.288 206.269 367.8V363.16H207.741V375H206.269V373.352C205.981 373.875 205.554 374.307 204.989 374.648C204.424 374.979 203.762 375.144 203.005 375.144C202.226 375.144 201.517 374.952 200.877 374.568C200.248 374.184 199.752 373.645 199.389 372.952C199.026 372.259 198.845 371.469 198.845 370.584ZM206.269 370.6C206.269 369.939 206.136 369.363 205.869 368.872C205.602 368.381 205.24 368.008 204.781 367.752C204.333 367.485 203.837 367.352 203.293 367.352C202.749 367.352 202.253 367.48 201.805 367.736C201.357 367.992 201 368.365 200.733 368.856C200.466 369.347 200.333 369.923 200.333 370.584C200.333 371.256 200.466 371.843 200.733 372.344C201 372.835 201.357 373.213 201.805 373.48C202.253 373.736 202.749 373.864 203.293 373.864C203.837 373.864 204.333 373.736 204.781 373.48C205.24 373.213 205.602 372.835 205.869 372.344C206.136 371.843 206.269 371.261 206.269 370.6ZM218.201 370.28C218.201 370.557 218.185 370.851 218.153 371.16H211.145C211.199 372.024 211.492 372.701 212.025 373.192C212.569 373.672 213.225 373.912 213.993 373.912C214.623 373.912 215.145 373.768 215.561 373.48C215.988 373.181 216.287 372.787 216.457 372.296H218.025C217.791 373.139 217.321 373.827 216.617 374.36C215.913 374.883 215.039 375.144 213.993 375.144C213.161 375.144 212.415 374.957 211.753 374.584C211.103 374.211 210.591 373.683 210.217 373C209.844 372.307 209.657 371.507 209.657 370.6C209.657 369.693 209.839 368.899 210.201 368.216C210.564 367.533 211.071 367.011 211.721 366.648C212.383 366.275 213.14 366.088 213.993 366.088C214.825 366.088 215.561 366.269 216.201 366.632C216.841 366.995 217.332 367.496 217.673 368.136C218.025 368.765 218.201 369.48 218.201 370.28ZM216.697 369.976C216.697 369.421 216.575 368.947 216.329 368.552C216.084 368.147 215.748 367.843 215.321 367.64C214.905 367.427 214.441 367.32 213.929 367.32C213.193 367.32 212.564 367.555 212.041 368.024C211.529 368.493 211.236 369.144 211.161 369.976H216.697ZM221.579 367.656C221.835 367.155 222.198 366.765 222.667 366.488C223.147 366.211 223.729 366.072 224.411 366.072V367.576H224.027C222.395 367.576 221.579 368.461 221.579 370.232V375H220.123V366.232H221.579V367.656Z" fill="#06152B"/>
<rect x="261.116" y="361.5" width="20" height="15" rx="5" fill="#FFA500"/>
<path d="M299.804 367.112C299.804 368.04 299.484 368.813 298.844 369.432C298.214 370.04 297.249 370.344 295.948 370.344H293.804V375H292.348V363.848H295.948C297.206 363.848 298.161 364.152 298.812 364.76C299.473 365.368 299.804 366.152 299.804 367.112ZM295.948 369.144C296.758 369.144 297.356 368.968 297.74 368.616C298.124 368.264 298.316 367.763 298.316 367.112C298.316 365.736 297.526 365.048 295.948 365.048H293.804V369.144H295.948ZM303.069 367.656C303.325 367.155 303.688 366.765 304.157 366.488C304.637 366.211 305.219 366.072 305.901 366.072V367.576H305.517C303.885 367.576 303.069 368.461 303.069 370.232V375H301.613V366.232H303.069V367.656ZM311.406 375.144C310.585 375.144 309.838 374.957 309.166 374.584C308.505 374.211 307.982 373.683 307.598 373C307.225 372.307 307.038 371.507 307.038 370.6C307.038 369.704 307.23 368.915 307.614 368.232C308.009 367.539 308.542 367.011 309.214 366.648C309.886 366.275 310.638 366.088 311.47 366.088C312.302 366.088 313.054 366.275 313.726 366.648C314.398 367.011 314.926 367.533 315.31 368.216C315.705 368.899 315.902 369.693 315.902 370.6C315.902 371.507 315.699 372.307 315.294 373C314.899 373.683 314.361 374.211 313.678 374.584C312.995 374.957 312.238 375.144 311.406 375.144ZM311.406 373.864C311.929 373.864 312.419 373.741 312.878 373.496C313.337 373.251 313.705 372.883 313.982 372.392C314.27 371.901 314.414 371.304 314.414 370.6C314.414 369.896 314.275 369.299 313.998 368.808C313.721 368.317 313.358 367.955 312.91 367.72C312.462 367.475 311.977 367.352 311.454 367.352C310.921 367.352 310.43 367.475 309.982 367.72C309.545 367.955 309.193 368.317 308.926 368.808C308.659 369.299 308.526 369.896 308.526 370.6C308.526 371.315 308.654 371.917 308.91 372.408C309.177 372.899 309.529 373.267 309.966 373.512C310.403 373.747 310.883 373.864 311.406 373.864ZM317.272 370.584C317.272 369.688 317.454 368.904 317.816 368.232C318.179 367.549 318.675 367.021 319.304 366.648C319.944 366.275 320.659 366.088 321.448 366.088C322.131 366.088 322.766 366.248 323.352 366.568C323.939 366.877 324.387 367.288 324.696 367.8V363.16H326.168V375H324.696V373.352C324.408 373.875 323.982 374.307 323.416 374.648C322.851 374.979 322.19 375.144 321.432 375.144C320.654 375.144 319.944 374.952 319.304 374.568C318.675 374.184 318.179 373.645 317.816 372.952C317.454 372.259 317.272 371.469 317.272 370.584ZM324.696 370.6C324.696 369.939 324.563 369.363 324.296 368.872C324.03 368.381 323.667 368.008 323.208 367.752C322.76 367.485 322.264 367.352 321.72 367.352C321.176 367.352 320.68 367.48 320.232 367.736C319.784 367.992 319.427 368.365 319.16 368.856C318.894 369.347 318.76 369.923 318.76 370.584C318.76 371.256 318.894 371.843 319.16 372.344C319.427 372.835 319.784 373.213 320.232 373.48C320.68 373.736 321.176 373.864 321.72 373.864C322.264 373.864 322.76 373.736 323.208 373.48C323.667 373.213 324.03 372.835 324.296 372.344C324.563 371.843 324.696 371.261 324.696 370.6ZM336.405 366.232V375H334.949V373.704C334.672 374.152 334.282 374.504 333.781 374.76C333.29 375.005 332.746 375.128 332.149 375.128C331.466 375.128 330.853 374.989 330.309 374.712C329.765 374.424 329.333 373.997 329.013 373.432C328.704 372.867 328.549 372.179 328.549 371.368V366.232H329.989V371.176C329.989 372.04 330.208 372.707 330.645 373.176C331.082 373.635 331.68 373.864 332.437 373.864C333.216 373.864 333.829 373.624 334.277 373.144C334.725 372.664 334.949 371.965 334.949 371.048V366.232H336.405ZM338.319 370.6C338.319 369.693 338.501 368.904 338.863 368.232C339.226 367.549 339.727 367.021 340.367 366.648C341.018 366.275 341.759 366.088 342.591 366.088C343.669 366.088 344.554 366.349 345.247 366.872C345.951 367.395 346.415 368.12 346.639 369.048H345.071C344.922 368.515 344.629 368.093 344.191 367.784C343.765 367.475 343.231 367.32 342.591 367.32C341.759 367.32 341.087 367.608 340.575 368.184C340.063 368.749 339.807 369.555 339.807 370.6C339.807 371.656 340.063 372.472 340.575 373.048C341.087 373.624 341.759 373.912 342.591 373.912C343.231 373.912 343.765 373.763 344.191 373.464C344.618 373.165 344.911 372.739 345.071 372.184H346.639C346.405 373.08 345.935 373.8 345.231 374.344C344.527 374.877 343.647 375.144 342.591 375.144C341.759 375.144 341.018 374.957 340.367 374.584C339.727 374.211 339.226 373.683 338.863 373C338.501 372.317 338.319 371.517 338.319 370.6ZM350.358 367.432V372.6C350.358 373.027 350.449 373.331 350.63 373.512C350.811 373.683 351.126 373.768 351.574 373.768H352.646V375H351.334C350.523 375 349.915 374.813 349.51 374.44C349.105 374.067 348.902 373.453 348.902 372.6V367.432H347.766V366.232H348.902V364.024H350.358V366.232H352.646V367.432H350.358ZM357.514 375.144C356.842 375.144 356.24 375.032 355.706 374.808C355.173 374.573 354.752 374.253 354.442 373.848C354.133 373.432 353.962 372.957 353.93 372.424H355.434C355.477 372.861 355.68 373.219 356.042 373.496C356.416 373.773 356.901 373.912 357.498 373.912C358.053 373.912 358.49 373.789 358.81 373.544C359.13 373.299 359.29 372.989 359.29 372.616C359.29 372.232 359.12 371.949 358.778 371.768C358.437 371.576 357.909 371.389 357.194 371.208C356.544 371.037 356.01 370.867 355.594 370.696C355.189 370.515 354.837 370.253 354.538 369.912C354.25 369.56 354.106 369.101 354.106 368.536C354.106 368.088 354.24 367.677 354.506 367.304C354.773 366.931 355.152 366.637 355.642 366.424C356.133 366.2 356.693 366.088 357.322 366.088C358.293 366.088 359.077 366.333 359.674 366.824C360.272 367.315 360.592 367.987 360.634 368.84H359.178C359.146 368.381 358.96 368.013 358.618 367.736C358.288 367.459 357.84 367.32 357.274 367.32C356.752 367.32 356.336 367.432 356.026 367.656C355.717 367.88 355.562 368.173 355.562 368.536C355.562 368.824 355.653 369.064 355.834 369.256C356.026 369.437 356.261 369.587 356.538 369.704C356.826 369.811 357.221 369.933 357.722 370.072C358.352 370.243 358.864 370.413 359.258 370.584C359.653 370.744 359.989 370.989 360.266 371.32C360.554 371.651 360.704 372.083 360.714 372.616C360.714 373.096 360.581 373.528 360.314 373.912C360.048 374.296 359.669 374.6 359.178 374.824C358.698 375.037 358.144 375.144 357.514 375.144Z" fill="#06152B"/>
<path d="M174.356 177.808C172.137 176.699 171.028 174.949 171.028 172.56C171.028 171.408 171.316 170.352 171.892 169.392C172.468 168.432 173.332 167.675 174.484 167.12C175.636 166.544 177.044 166.256 178.708 166.256C180.351 166.256 181.748 166.544 182.9 167.12C184.073 167.675 184.948 168.432 185.524 169.392C186.1 170.352 186.388 171.408 186.388 172.56C186.388 173.755 186.079 174.811 185.46 175.728C184.863 176.624 184.063 177.317 183.06 177.808C184.276 178.256 185.236 178.992 185.94 180.016C186.644 181.019 186.996 182.203 186.996 183.568C186.996 184.955 186.644 186.181 185.94 187.248C185.236 188.315 184.255 189.136 182.996 189.712C181.737 190.288 180.308 190.576 178.708 190.576C177.108 190.576 175.679 190.288 174.42 189.712C173.183 189.136 172.212 188.315 171.508 187.248C170.804 186.181 170.452 184.955 170.452 183.568C170.452 182.181 170.804 180.987 171.508 179.984C172.212 178.981 173.161 178.256 174.356 177.808ZM182.9 173.008C182.9 171.813 182.527 170.896 181.78 170.256C181.033 169.616 180.009 169.296 178.708 169.296C177.428 169.296 176.415 169.616 175.668 170.256C174.921 170.896 174.548 171.824 174.548 173.04C174.548 174.107 174.932 174.981 175.7 175.664C176.489 176.325 177.492 176.656 178.708 176.656C179.924 176.656 180.927 176.315 181.716 175.632C182.505 174.949 182.9 174.075 182.9 173.008ZM178.708 179.408C177.3 179.408 176.148 179.76 175.252 180.464C174.377 181.147 173.94 182.139 173.94 183.44C173.94 184.656 174.367 185.648 175.22 186.416C176.073 187.163 177.236 187.536 178.708 187.536C180.159 187.536 181.3 187.152 182.132 186.384C182.985 185.616 183.412 184.635 183.412 183.44C183.412 182.16 182.975 181.168 182.1 180.464C181.247 179.76 180.116 179.408 178.708 179.408ZM190.826 178.032C190.826 174.341 191.445 171.461 192.682 169.392C193.941 167.301 196.096 166.256 199.146 166.256C202.197 166.256 204.341 167.301 205.578 169.392C206.837 171.461 207.466 174.341 207.466 178.032C207.466 181.765 206.837 184.688 205.578 186.8C204.341 188.891 202.197 189.936 199.146 189.936C196.096 189.936 193.941 188.891 192.682 186.8C191.445 184.688 190.826 181.765 190.826 178.032ZM203.882 178.032C203.882 176.304 203.765 174.843 203.53 173.648C203.317 172.453 202.869 171.483 202.186 170.736C201.504 169.968 200.49 169.584 199.146 169.584C197.802 169.584 196.789 169.968 196.106 170.736C195.424 171.483 194.965 172.453 194.73 173.648C194.517 174.843 194.41 176.304 194.41 178.032C194.41 179.824 194.517 181.328 194.73 182.544C194.944 183.76 195.392 184.741 196.074 185.488C196.778 186.235 197.802 186.608 199.146 186.608C200.49 186.608 201.504 186.235 202.186 185.488C202.89 184.741 203.349 183.76 203.562 182.544C203.776 181.328 203.882 179.824 203.882 178.032ZM210.75 172.304C210.75 170.747 211.198 169.531 212.094 168.656C213.012 167.76 214.185 167.312 215.614 167.312C217.044 167.312 218.206 167.76 219.102 168.656C220.02 169.531 220.478 170.747 220.478 172.304C220.478 173.861 220.02 175.088 219.102 175.984C218.206 176.88 217.044 177.328 215.614 177.328C214.185 177.328 213.012 176.88 212.094 175.984C211.198 175.088 210.75 173.861 210.75 172.304ZM230.27 167.728L217.502 190H213.918L226.686 167.728H230.27ZM215.614 169.52C214.27 169.52 213.598 170.448 213.598 172.304C213.598 174.181 214.27 175.12 215.614 175.12C216.254 175.12 216.745 174.896 217.086 174.448C217.449 173.979 217.63 173.264 217.63 172.304C217.63 170.448 216.958 169.52 215.614 169.52ZM223.774 185.392C223.774 183.835 224.222 182.619 225.118 181.744C226.036 180.848 227.209 180.4 228.638 180.4C230.046 180.4 231.198 180.848 232.094 181.744C233.012 182.619 233.47 183.835 233.47 185.392C233.47 186.949 233.012 188.176 232.094 189.072C231.198 189.968 230.046 190.416 228.638 190.416C227.209 190.416 226.036 189.968 225.118 189.072C224.222 188.176 223.774 186.949 223.774 185.392ZM228.606 182.608C227.262 182.608 226.59 183.536 226.59 185.392C226.59 187.248 227.262 188.176 228.606 188.176C229.95 188.176 230.622 187.248 230.622 185.392C230.622 183.536 229.95 182.608 228.606 182.608Z" fill="#06152B"/>
<path d="M155.912 208.232L153.176 217H151.672L149.56 210.04L147.448 217H145.944L143.192 208.232H144.68L146.696 215.592L148.872 208.232H150.36L152.488 215.608L154.472 208.232H155.912ZM165.357 212.28C165.357 212.557 165.341 212.851 165.309 213.16H158.301C158.354 214.024 158.648 214.701 159.181 215.192C159.725 215.672 160.381 215.912 161.149 215.912C161.778 215.912 162.301 215.768 162.717 215.48C163.144 215.181 163.442 214.787 163.613 214.296H165.181C164.946 215.139 164.477 215.827 163.773 216.36C163.069 216.883 162.194 217.144 161.149 217.144C160.317 217.144 159.57 216.957 158.909 216.584C158.258 216.211 157.746 215.683 157.373 215C157 214.307 156.813 213.507 156.813 212.6C156.813 211.693 156.994 210.899 157.357 210.216C157.72 209.533 158.226 209.011 158.877 208.648C159.538 208.275 160.296 208.088 161.149 208.088C161.981 208.088 162.717 208.269 163.357 208.632C163.997 208.995 164.488 209.496 164.829 210.136C165.181 210.765 165.357 211.48 165.357 212.28ZM163.853 211.976C163.853 211.421 163.73 210.947 163.485 210.552C163.24 210.147 162.904 209.843 162.477 209.64C162.061 209.427 161.597 209.32 161.085 209.32C160.349 209.32 159.72 209.555 159.197 210.024C158.685 210.493 158.392 211.144 158.317 211.976H163.853ZM168.735 209.864C169.034 209.341 169.471 208.915 170.047 208.584C170.623 208.253 171.279 208.088 172.015 208.088C172.804 208.088 173.514 208.275 174.143 208.648C174.772 209.021 175.268 209.549 175.631 210.232C175.994 210.904 176.175 211.688 176.175 212.584C176.175 213.469 175.994 214.259 175.631 214.952C175.268 215.645 174.767 216.184 174.127 216.568C173.498 216.952 172.794 217.144 172.015 217.144C171.258 217.144 170.591 216.979 170.015 216.648C169.45 216.317 169.023 215.896 168.735 215.384V217H167.279V205.16H168.735V209.864ZM174.687 212.584C174.687 211.923 174.554 211.347 174.287 210.856C174.02 210.365 173.658 209.992 173.199 209.736C172.751 209.48 172.255 209.352 171.711 209.352C171.178 209.352 170.682 209.485 170.223 209.752C169.775 210.008 169.412 210.387 169.135 210.888C168.868 211.379 168.735 211.949 168.735 212.6C168.735 213.261 168.868 213.843 169.135 214.344C169.412 214.835 169.775 215.213 170.223 215.48C170.682 215.736 171.178 215.864 171.711 215.864C172.255 215.864 172.751 215.736 173.199 215.48C173.658 215.213 174.02 214.835 174.287 214.344C174.554 213.843 174.687 213.256 174.687 212.584ZM181.195 217.144C180.523 217.144 179.921 217.032 179.387 216.808C178.854 216.573 178.433 216.253 178.123 215.848C177.814 215.432 177.643 214.957 177.611 214.424H179.115C179.158 214.861 179.361 215.219 179.723 215.496C180.097 215.773 180.582 215.912 181.179 215.912C181.734 215.912 182.171 215.789 182.491 215.544C182.811 215.299 182.971 214.989 182.971 214.616C182.971 214.232 182.801 213.949 182.459 213.768C182.118 213.576 181.59 213.389 180.875 213.208C180.225 213.037 179.691 212.867 179.275 212.696C178.87 212.515 178.518 212.253 178.219 211.912C177.931 211.56 177.787 211.101 177.787 210.536C177.787 210.088 177.921 209.677 178.187 209.304C178.454 208.931 178.833 208.637 179.323 208.424C179.814 208.2 180.374 208.088 181.003 208.088C181.974 208.088 182.758 208.333 183.355 208.824C183.953 209.315 184.273 209.987 184.315 210.84H182.859C182.827 210.381 182.641 210.013 182.299 209.736C181.969 209.459 181.521 209.32 180.955 209.32C180.433 209.32 180.017 209.432 179.707 209.656C179.398 209.88 179.243 210.173 179.243 210.536C179.243 210.824 179.334 211.064 179.515 211.256C179.707 211.437 179.942 211.587 180.219 211.704C180.507 211.811 180.902 211.933 181.403 212.072C182.033 212.243 182.545 212.413 182.939 212.584C183.334 212.744 183.67 212.989 183.947 213.32C184.235 213.651 184.385 214.083 184.395 214.616C184.395 215.096 184.262 215.528 183.995 215.912C183.729 216.296 183.35 216.6 182.859 216.824C182.379 217.037 181.825 217.144 181.195 217.144ZM187.203 206.808C186.925 206.808 186.691 206.712 186.499 206.52C186.307 206.328 186.211 206.093 186.211 205.816C186.211 205.539 186.307 205.304 186.499 205.112C186.691 204.92 186.925 204.824 187.203 204.824C187.469 204.824 187.693 204.92 187.875 205.112C188.067 205.304 188.163 205.539 188.163 205.816C188.163 206.093 188.067 206.328 187.875 206.52C187.693 206.712 187.469 206.808 187.203 206.808ZM187.907 208.232V217H186.451V208.232H187.907ZM192.164 209.432V214.6C192.164 215.027 192.255 215.331 192.436 215.512C192.618 215.683 192.932 215.768 193.38 215.768H194.452V217H193.14C192.33 217 191.722 216.813 191.316 216.44C190.911 216.067 190.708 215.453 190.708 214.6V209.432H189.572V208.232H190.708V206.024H192.164V208.232H194.452V209.432H192.164ZM204.216 212.28C204.216 212.557 204.2 212.851 204.168 213.16H197.16C197.214 214.024 197.507 214.701 198.04 215.192C198.584 215.672 199.24 215.912 200.008 215.912C200.638 215.912 201.16 215.768 201.576 215.48C202.003 215.181 202.302 214.787 202.472 214.296H204.04C203.806 215.139 203.336 215.827 202.632 216.36C201.928 216.883 201.054 217.144 200.008 217.144C199.176 217.144 198.43 216.957 197.768 216.584C197.118 216.211 196.606 215.683 196.232 215C195.859 214.307 195.672 213.507 195.672 212.6C195.672 211.693 195.854 210.899 196.216 210.216C196.579 209.533 197.086 209.011 197.736 208.648C198.398 208.275 199.155 208.088 200.008 208.088C200.84 208.088 201.576 208.269 202.216 208.632C202.856 208.995 203.347 209.496 203.688 210.136C204.04 210.765 204.216 211.48 204.216 212.28ZM202.712 211.976C202.712 211.421 202.59 210.947 202.344 210.552C202.099 210.147 201.763 209.843 201.336 209.64C200.92 209.427 200.456 209.32 199.944 209.32C199.208 209.32 198.579 209.555 198.056 210.024C197.544 210.493 197.251 211.144 197.176 211.976H202.712ZM218.852 209.08C218.543 208.429 218.095 207.928 217.508 207.576C216.921 207.213 216.239 207.032 215.46 207.032C214.681 207.032 213.977 207.213 213.348 207.576C212.729 207.928 212.239 208.44 211.876 209.112C211.524 209.773 211.348 210.541 211.348 211.416C211.348 212.291 211.524 213.059 211.876 213.72C212.239 214.381 212.729 214.893 213.348 215.256C213.977 215.608 214.681 215.784 215.46 215.784C216.548 215.784 217.444 215.459 218.148 214.808C218.852 214.157 219.263 213.277 219.38 212.168H214.932V210.984H220.932V212.104C220.847 213.021 220.559 213.864 220.068 214.632C219.577 215.389 218.932 215.992 218.132 216.44C217.332 216.877 216.441 217.096 215.46 217.096C214.425 217.096 213.481 216.856 212.628 216.376C211.775 215.885 211.097 215.208 210.596 214.344C210.105 213.48 209.86 212.504 209.86 211.416C209.86 210.328 210.105 209.352 210.596 208.488C211.097 207.613 211.775 206.936 212.628 206.456C213.481 205.965 214.425 205.72 215.46 205.72C216.644 205.72 217.689 206.013 218.596 206.6C219.513 207.187 220.18 208.013 220.596 209.08H218.852ZM224.313 209.656C224.569 209.155 224.932 208.765 225.401 208.488C225.881 208.211 226.462 208.072 227.145 208.072V209.576H226.761C225.129 209.576 224.313 210.461 224.313 212.232V217H222.857V208.232H224.313V209.656ZM232.65 217.144C231.828 217.144 231.082 216.957 230.41 216.584C229.748 216.211 229.226 215.683 228.842 215C228.468 214.307 228.282 213.507 228.282 212.6C228.282 211.704 228.474 210.915 228.858 210.232C229.252 209.539 229.786 209.011 230.458 208.648C231.13 208.275 231.882 208.088 232.714 208.088C233.546 208.088 234.298 208.275 234.97 208.648C235.642 209.011 236.17 209.533 236.554 210.216C236.948 210.899 237.146 211.693 237.146 212.6C237.146 213.507 236.943 214.307 236.538 215C236.143 215.683 235.604 216.211 234.922 216.584C234.239 216.957 233.482 217.144 232.65 217.144ZM232.65 215.864C233.172 215.864 233.663 215.741 234.122 215.496C234.58 215.251 234.948 214.883 235.226 214.392C235.514 213.901 235.658 213.304 235.658 212.6C235.658 211.896 235.519 211.299 235.242 210.808C234.964 210.317 234.602 209.955 234.154 209.72C233.706 209.475 233.22 209.352 232.698 209.352C232.164 209.352 231.674 209.475 231.226 209.72C230.788 209.955 230.436 210.317 230.17 210.808C229.903 211.299 229.77 211.896 229.77 212.6C229.77 213.315 229.898 213.917 230.154 214.408C230.42 214.899 230.772 215.267 231.21 215.512C231.647 215.747 232.127 215.864 232.65 215.864ZM250.74 208.232L248.004 217H246.5L244.388 210.04L242.276 217H240.772L238.02 208.232H239.508L241.524 215.592L243.7 208.232H245.188L247.316 215.608L249.3 208.232H250.74ZM253.961 209.432V214.6C253.961 215.027 254.052 215.331 254.233 215.512C254.414 215.683 254.729 215.768 255.177 215.768H256.249V217H254.937C254.126 217 253.518 216.813 253.113 216.44C252.708 216.067 252.505 215.453 252.505 214.6V209.432H251.369V208.232H252.505V206.024H253.961V208.232H256.249V209.432H253.961ZM262.365 208.072C263.027 208.072 263.624 208.216 264.157 208.504C264.691 208.781 265.107 209.203 265.405 209.768C265.715 210.333 265.869 211.021 265.869 211.832V217H264.429V212.04C264.429 211.165 264.211 210.499 263.773 210.04C263.336 209.571 262.739 209.336 261.981 209.336C261.213 209.336 260.6 209.576 260.141 210.056C259.693 210.536 259.469 211.235 259.469 212.152V217H258.013V205.16H259.469V209.48C259.757 209.032 260.152 208.685 260.653 208.44C261.165 208.195 261.736 208.072 262.365 208.072Z" fill="#06152B"/>
<path d="M313 193C313 252.647 264.647 301 205 301C145.353 301 97 252.647 97 193C97 133.353 145.353 85 205 85C264.647 85 313 133.353 313 193ZM108.214 193C108.214 246.453 151.547 289.786 205 289.786C258.453 289.786 301.786 246.453 301.786 193C301.786 139.547 258.453 96.214 205 96.214C151.547 96.214 108.214 139.547 108.214 193Z" fill="#F8F3ED"/>
<path d="M307.231 193C310.417 193 313.016 195.585 312.846 198.766C312.12 212.352 308.831 225.698 303.136 238.092C296.637 252.237 287.157 264.809 275.346 274.948C263.535 285.087 249.672 292.553 234.706 296.834C219.741 301.116 204.026 302.112 188.64 299.754C173.254 297.396 158.559 291.74 145.562 283.173C132.566 274.606 121.574 263.331 113.342 250.121C105.109 236.91 99.8292 222.076 97.8641 206.634C96.142 193.103 97.0011 179.385 100.377 166.205C101.167 163.119 104.421 161.431 107.46 162.385C110.5 163.339 112.173 166.573 111.402 169.665C108.513 181.254 107.797 193.296 109.309 205.178C111.064 218.97 115.78 232.219 123.133 244.019C130.486 255.818 140.303 265.889 151.912 273.54C163.52 281.192 176.645 286.244 190.388 288.35C204.13 290.456 218.166 289.566 231.533 285.742C244.9 281.918 257.282 275.25 267.831 266.194C278.381 257.138 286.848 245.909 292.653 233.275C297.653 222.392 300.577 210.688 301.29 198.765C301.481 195.585 304.046 193 307.231 193Z" fill="#FFA500"/>
<path d="M307.167 193C310.388 193 313.016 195.614 312.843 198.831C311.858 217.051 306.269 234.76 296.557 250.283C285.812 267.457 270.453 281.263 252.235 290.123C234.016 298.983 213.673 302.541 193.53 300.389C175.323 298.444 157.942 291.907 143.001 281.431C140.363 279.582 139.93 275.901 141.919 273.367C143.908 270.832 147.566 270.407 150.216 272.239C163.426 281.372 178.738 287.076 194.769 288.788C212.737 290.708 230.882 287.534 247.132 279.631C263.382 271.728 277.082 259.414 286.666 244.095C295.217 230.428 300.185 214.861 301.157 198.83C301.352 195.614 303.945 193 307.167 193Z" fill="#D4B483"/>
<path d="M205 91.239C205 87.7933 207.796 84.9812 211.236 85.1801C230.405 86.2886 248.974 92.4919 265.002 103.201C282.762 115.068 296.605 131.936 304.779 151.67C312.953 171.405 315.092 193.12 310.925 214.07C307.164 232.976 298.42 250.492 285.649 264.831C283.358 267.404 279.392 267.392 276.956 264.956C274.519 262.519 274.537 258.582 276.809 255.992C287.845 243.411 295.407 228.12 298.687 211.635C302.372 193.106 300.481 173.9 293.251 156.445C286.021 138.991 273.778 124.072 258.069 113.576C244.094 104.238 227.934 98.7738 211.235 97.6817C207.797 97.4568 205 94.6847 205 91.239Z" fill="#A27738"/>
<path d="M32.946 42.606H27.942L27.114 45H24.468L28.986 32.418H31.92L36.438 45H33.774L32.946 42.606ZM32.262 40.59L30.444 35.334L28.626 40.59H32.262ZM43.6528 34.884C44.8408 34.884 45.8008 35.262 46.5328 36.018C47.2648 36.762 47.6308 37.806 47.6308 39.15V45H45.1108V39.492C45.1108 38.7 44.9128 38.094 44.5168 37.674C44.1208 37.242 43.5808 37.026 42.8968 37.026C42.2008 37.026 41.6488 37.242 41.2408 37.674C40.8448 38.094 40.6468 38.7 40.6468 39.492V45H38.1268V35.028H40.6468V36.27C40.9828 35.838 41.4088 35.502 41.9248 35.262C42.4528 35.01 43.0288 34.884 43.6528 34.884ZM49.3792 39.978C49.3792 38.97 49.5772 38.076 49.9732 37.296C50.3812 36.516 50.9272 35.916 51.6112 35.496C52.3072 35.076 53.0812 34.866 53.9332 34.866C54.6772 34.866 55.3252 35.016 55.8772 35.316C56.4412 35.616 56.8912 35.994 57.2272 36.45V35.028H59.7652V45H57.2272V43.542C56.9032 44.01 56.4532 44.4 55.8772 44.712C55.3132 45.012 54.6592 45.162 53.9152 45.162C53.0752 45.162 52.3072 44.946 51.6112 44.514C50.9272 44.082 50.3812 43.476 49.9732 42.696C49.5772 41.904 49.3792 40.998 49.3792 39.978ZM57.2272 40.014C57.2272 39.402 57.1072 38.88 56.8672 38.448C56.6272 38.004 56.3032 37.668 55.8952 37.44C55.4872 37.2 55.0492 37.08 54.5812 37.08C54.1132 37.08 53.6812 37.194 53.2852 37.422C52.8892 37.65 52.5652 37.986 52.3132 38.43C52.0732 38.862 51.9532 39.378 51.9532 39.978C51.9532 40.578 52.0732 41.106 52.3132 41.562C52.5652 42.006 52.8892 42.348 53.2852 42.588C53.6932 42.828 54.1252 42.948 54.5812 42.948C55.0492 42.948 55.4872 42.834 55.8952 42.606C56.3032 42.366 56.6272 42.03 56.8672 41.598C57.1072 41.154 57.2272 40.626 57.2272 40.014ZM64.7464 31.68V45H62.2264V31.68H64.7464ZM76.7761 35.028L70.6021 49.716H67.9201L70.0801 44.748L66.0841 35.028H68.9101L71.4841 41.994L74.0941 35.028H76.7761ZM81.0686 37.098V41.922C81.0686 42.258 81.1466 42.504 81.3026 42.66C81.4706 42.804 81.7466 42.876 82.1306 42.876H83.3006V45H81.7166C79.5926 45 78.5306 43.968 78.5306 41.904V37.098H77.3426V35.028H78.5306V32.562H81.0686V35.028H83.3006V37.098H81.0686ZM86.3911 33.84C85.9471 33.84 85.5751 33.702 85.2751 33.426C84.9871 33.138 84.8431 32.784 84.8431 32.364C84.8431 31.944 84.9871 31.596 85.2751 31.32C85.5751 31.032 85.9471 30.888 86.3911 30.888C86.8351 30.888 87.2011 31.032 87.4891 31.32C87.7891 31.596 87.9391 31.944 87.9391 32.364C87.9391 32.784 87.7891 33.138 87.4891 33.426C87.2011 33.702 86.8351 33.84 86.3911 33.84ZM87.6331 35.028V45H85.1131V35.028H87.6331ZM89.4749 40.014C89.4749 38.982 89.6849 38.082 90.1049 37.314C90.5249 36.534 91.1069 35.934 91.8509 35.514C92.5949 35.082 93.4469 34.866 94.4069 34.866C95.6429 34.866 96.6629 35.178 97.4669 35.802C98.2829 36.414 98.8289 37.278 99.1049 38.394H96.3869C96.2429 37.962 95.9969 37.626 95.6489 37.386C95.3129 37.134 94.8929 37.008 94.3889 37.008C93.6689 37.008 93.0989 37.272 92.6789 37.8C92.2589 38.316 92.0489 39.054 92.0489 40.014C92.0489 40.962 92.2589 41.7 92.6789 42.228C93.0989 42.744 93.6689 43.002 94.3889 43.002C95.4089 43.002 96.0749 42.546 96.3869 41.634H99.1049C98.8289 42.714 98.2829 43.572 97.4669 44.208C96.6509 44.844 95.6309 45.162 94.4069 45.162C93.4469 45.162 92.5949 44.952 91.8509 44.532C91.1069 44.1 90.5249 43.5 90.1049 42.732C89.6849 41.952 89.4749 41.046 89.4749 40.014ZM104.767 45.162C103.951 45.162 103.219 45.018 102.571 44.73C101.923 44.43 101.407 44.028 101.023 43.524C100.651 43.02 100.447 42.462 100.411 41.85H102.949C102.997 42.234 103.183 42.552 103.507 42.804C103.843 43.056 104.257 43.182 104.749 43.182C105.229 43.182 105.601 43.086 105.865 42.894C106.141 42.702 106.279 42.456 106.279 42.156C106.279 41.832 106.111 41.592 105.775 41.436C105.451 41.268 104.929 41.088 104.209 40.896C103.465 40.716 102.853 40.53 102.373 40.338C101.905 40.146 101.497 39.852 101.149 39.456C100.813 39.06 100.645 38.526 100.645 37.854C100.645 37.302 100.801 36.798 101.113 36.342C101.437 35.886 101.893 35.526 102.481 35.262C103.081 34.998 103.783 34.866 104.587 34.866C105.775 34.866 106.723 35.166 107.431 35.766C108.139 36.354 108.529 37.152 108.601 38.16H106.189C106.153 37.764 105.985 37.452 105.685 37.224C105.397 36.984 105.007 36.864 104.515 36.864C104.059 36.864 103.705 36.948 103.453 37.116C103.213 37.284 103.093 37.518 103.093 37.818C103.093 38.154 103.261 38.412 103.597 38.592C103.933 38.76 104.455 38.934 105.163 39.114C105.883 39.294 106.477 39.48 106.945 39.672C107.413 39.864 107.815 40.164 108.151 40.572C108.499 40.968 108.679 41.496 108.691 42.156C108.691 42.732 108.529 43.248 108.205 43.704C107.893 44.16 107.437 44.52 106.837 44.784C106.249 45.036 105.559 45.162 104.767 45.162Z" fill="#312921"/>
<g opacity="0.3">
<path d="M375.222 36.0126C374.572 35.3292 373.518 35.3292 372.868 36.0126C372.218 36.696 372.218 37.804 372.868 38.4874C373.518 39.1709 374.572 39.1709 375.222 38.4874C375.872 37.8041 375.872 36.696 375.222 36.0126Z" fill="white"/>
<path d="M370.228 36.0126C369.578 35.3292 368.524 35.3292 367.874 36.0126C367.224 36.696 367.224 37.804 367.874 38.4874C368.524 39.1709 369.578 39.1709 370.228 38.4874C370.878 37.8041 370.878 36.696 370.228 36.0126Z" fill="white"/>
<path d="M365.235 36.0126C364.585 35.3292 363.531 35.3292 362.881 36.0126C362.231 36.696 362.231 37.804 362.881 38.4874C363.531 39.1709 364.585 39.1709 365.235 38.4874C365.885 37.8041 365.885 36.696 365.235 36.0126Z" fill="white"/>
</g>
</svg>
