<svg width="8" height="12" viewBox="0 0 8 12" fill="none" xmlns="http://www.w3.org/2000/svg">
<path d="M1 1.5C0.723858 1.5 0.5 1.27614 0.5 1C0.5 0.723858 0.723858 0.5 1 0.5V1.5ZM4 1V0.5C4.27614 0.5 4.5 0.723858 4.5 1H4ZM4.35355 11.3536C4.15829 11.5488 3.84171 11.5488 3.64645 11.3536L0.464466 8.17157C0.269204 7.97631 0.269204 7.65973 0.464466 7.46447C0.659728 7.2692 0.976311 7.2692 1.17157 7.46447L4 10.2929L6.82843 7.46447C7.02369 7.2692 7.34027 7.2692 7.53553 7.46447C7.7308 7.65973 7.7308 7.97631 7.53553 8.17157L4.35355 11.3536ZM1 0.5H4V1.5H1V0.5ZM4.5 1V11H3.5V1H4.5Z" fill="#E45555"/>
</svg>
