<svg width="8" height="12" viewBox="0 0 8 12" fill="none" xmlns="http://www.w3.org/2000/svg">
<path d="M1 10.5C0.723858 10.5 0.5 10.7239 0.5 11C0.5 11.2761 0.723858 11.5 1 11.5V10.5ZM4 11V11.5C4.27614 11.5 4.5 11.2761 4.5 11H4ZM4.35355 0.646447C4.15829 0.451184 3.84171 0.451184 3.64645 0.646447L0.464466 3.82843C0.269204 4.02369 0.269204 4.34027 0.464466 4.53553C0.659728 4.7308 0.976311 4.7308 1.17157 4.53553L4 1.70711L6.82843 4.53553C7.02369 4.7308 7.34027 4.7308 7.53553 4.53553C7.7308 4.34027 7.7308 4.02369 7.53553 3.82843L4.35355 0.646447ZM1 11.5H4V10.5H1V11.5ZM4.5 11V1H3.5V11H4.5Z" fill="#0D9934"/>
</svg>
