<svg width="116" height="14" viewBox="0 0 116 14" fill="none" xmlns="http://www.w3.org/2000/svg">
<path d="M10.1724 0.0107421C10.9046 -0.000741239 11.6395 -0.0237063 12.3634 0.0842373C11.0664 1.63449 10.1039 3.37307 8.89182 4.96926C7.27941 7.44507 5.48054 9.84509 3.92298 12.3485C4.57562 12.3531 5.22552 12.3553 5.87542 12.3668C6.59935 11.6916 6.92019 10.8074 7.55089 10.0793C9.43751 7.19932 11.4969 4.40428 13.3863 1.52425C16.2107 5.66515 19.0406 9.80145 21.9309 13.9102C19.792 13.8941 17.6531 13.9125 15.5142 13.901C14.5051 12.3645 13.4192 10.8625 12.3716 9.34441C12.4292 8.7289 13.1367 8.31321 13.389 7.75282C14.4694 9.27092 15.5471 10.7913 16.5562 12.3462C17.2884 12.3553 18.0233 12.3576 18.7582 12.3485C16.8935 9.80834 15.0864 7.22918 13.4027 4.60408C11.2857 7.72067 9.15232 10.8189 7.01616 13.9194C5.59846 13.8872 4.18075 13.9079 2.76304 13.901C2.09943 13.9033 1.43582 13.9079 0.772217 13.9102C0.909326 13.3131 1.4797 12.8836 1.73472 12.3186C4.59482 8.23972 7.36716 4.11489 10.1724 0.0107421Z" fill="white"/>
<path d="M19.9727 0.0104888C20.1565 0.0081921 20.5212 0.00819337 20.7022 0.00819337C22.2652 0.0127867 23.8255 0.00360101 25.3886 0.0127877C25.3968 2.15099 25.3721 4.29149 25.3968 6.42969C25.3803 8.19583 27.6234 9.78053 29.7047 9.26378C31.3775 9.02263 32.5594 7.60558 32.4552 6.21839C32.4332 4.15828 32.4744 2.09816 32.4332 0.0403466C33.031 0.00359989 33.6288 -0.00329125 34.2293 0.0104888C34.2266 2.23596 34.2458 4.45914 34.2211 6.68462C34.1306 8.85727 31.8711 10.7497 29.2824 10.837C26.4772 11.0873 23.82 9.09612 23.6473 6.765C23.5458 5.03331 23.6473 3.29703 23.5979 1.56304C23.0083 1.55385 22.4215 1.55385 21.8319 1.56304C21.8347 3.26258 21.7826 4.96211 21.8566 6.66165C21.9334 9.4544 24.7249 11.9807 28.0375 12.2816C29.6746 12.4699 31.3555 12.1185 32.765 11.4135C34.8189 10.3019 36.0721 8.25554 36.0172 6.2138C36.009 4.1468 36.0173 2.08209 36.0118 0.0173785C36.6288 0.00589515 37.2457 0.00360101 37.8655 0.0127877C37.86 2.22448 37.8792 4.43847 37.8545 6.65017C37.7722 10.2376 34.2348 13.4897 29.9461 13.8181C26.5979 14.2016 23.1016 12.7478 21.3438 10.3478C20.5294 9.15813 20.0084 7.82836 19.9837 6.44806C19.9508 4.30297 19.9727 2.15558 19.9727 0.0104888Z" fill="white"/>
<path d="M38.1755 0.00146484C39.6947 0.0198382 41.2139 -0.00313004 42.7358 0.01065C43.4515 0.01065 44.1699 0.00605889 44.8856 0.0129489C46.0922 1.39555 47.1836 2.84474 48.3902 4.22504C46.1827 6.93512 43.8957 9.60385 41.7623 12.3553C42.4945 12.3621 43.2294 12.3622 43.9643 12.3438C45.0255 10.9864 46.1114 9.64289 47.2412 8.3246C48.3408 9.66356 49.5336 10.952 50.5482 12.3415C51.2804 12.3599 52.0153 12.3621 52.7475 12.353C51.4011 10.4904 49.8024 8.76786 48.3737 6.9489C49.8188 5.1506 51.3024 3.37068 52.7804 1.58847C52.029 1.55172 51.2749 1.54483 50.5236 1.5609C50.2082 1.98808 49.86 2.39919 49.5803 2.84245C49.0894 2.48187 48.7549 2.00876 48.3984 1.55631C48.7631 1.01659 49.1881 0.511324 49.6214 0.01065C51.859 0.00835332 54.0966 0.01065 56.3343 0.01065C54.3763 2.31191 52.4979 4.66141 50.5702 6.98105C51.9851 8.50374 53.178 10.1596 54.5244 11.7237C55.0866 12.4471 55.7886 13.1017 56.2108 13.8963C55.3964 13.9078 54.582 13.8986 53.7703 13.9009C52.3992 13.9124 51.0281 13.894 49.657 13.9147C48.881 12.934 48.0337 11.997 47.2686 11.0117C46.35 11.9281 45.7878 13.143 44.68 13.8871C42.5109 13.9285 40.3364 13.8894 38.1646 13.9032C40.8354 10.681 43.5283 7.46794 46.1169 4.20208C45.445 3.32934 44.7129 2.49106 44.0164 1.6321C43.2513 1.47363 42.4424 1.60224 41.6636 1.54023C42.4533 2.39 43.084 3.33623 43.8902 4.17681C43.5639 4.64763 43.2266 5.12075 42.7605 5.50659C41.181 3.7037 39.7331 1.82043 38.1755 0.00146484Z" fill="white"/>
<path d="M58.3659 0.0106114C60.1182 0.0175014 61.8732 -0.00546435 63.6282 0.0152057C63.8585 2.18326 63.5898 4.46156 63.7571 6.66866C63.9188 8.35901 66.0577 9.72323 68.0458 9.27309C69.746 9.03653 70.8675 7.59193 70.8401 6.20703C70.8374 4.55113 70.8374 2.89523 70.8374 1.24163C70.8374 0.83282 70.8401 0.426311 70.8374 0.0198C71.4297 0.00831666 72.0247 0.00601803 72.6198 0.0106114C72.6198 2.07991 72.6308 4.15151 72.617 6.22311C72.6061 7.06599 72.3565 7.89049 71.8794 8.63232C70.6646 10.4283 67.8457 11.3309 65.5203 10.6052C63.5541 10.0448 62.1035 8.4394 61.9801 6.70541C61.865 4.99209 61.9582 3.27648 61.928 1.56086C61.3302 1.56086 60.7352 1.55168 60.1401 1.5379C60.1895 3.3982 60.0332 5.2631 60.2443 7.11651C60.609 9.80821 63.3786 12.0842 66.6034 12.3116C69.1619 12.5252 71.8273 11.4894 73.2011 9.65893C74.1746 8.44858 74.4159 6.94886 74.4104 5.52033C74.3912 3.69447 74.4296 1.86862 74.3885 0.0450635C75.0082 -0.000869883 75.6307 -0.000869743 76.2504 0.0129103C76.127 2.80796 76.5768 5.65124 75.883 8.40724C75.3071 10.2285 73.8072 11.765 71.937 12.7755C68.7094 14.475 64.1547 14.1696 61.3659 11.9763C59.3997 10.5592 58.3138 8.3705 58.3632 6.20933C58.3659 4.14232 58.3577 2.07762 58.3659 0.0106114Z" fill="white"/>
<path d="M78.2251 0.0407042C82.7579 -0.0236026 87.3099 0.0154394 91.851 0.0177361C93.9981 0.0292195 95.9698 1.45545 96.2878 3.23078C96.658 4.98314 95.3637 6.84804 93.3948 7.48881C91.3629 7.99637 89.2295 7.64958 87.1509 7.7001C84.7981 7.73226 82.4398 7.64039 80.0898 7.74604C80.1035 9.28021 80.0761 10.8121 80.1035 12.3463C80.715 12.3578 81.3292 12.36 81.9435 12.3578C81.9517 11.322 81.938 10.2862 81.9517 9.25265C84.2853 9.26184 86.6189 9.23428 88.9525 9.26643C89.6545 10.3045 90.362 11.3403 91.138 12.3417C91.8071 12.3578 92.479 12.36 93.1508 12.3509C92.5503 11.2967 91.777 10.3206 91.1188 9.29399C91.8318 9.23428 92.553 9.22509 93.266 9.2871C94.2394 10.8534 95.3555 12.3555 96.414 13.885C94.2669 13.931 92.1197 13.8827 89.9699 13.9103C89.3776 12.8286 88.5796 11.8433 87.8968 10.8029C86.5065 10.8052 85.1162 10.7983 83.7287 10.8052C83.7232 11.8203 83.7314 12.8378 83.7259 13.8529C83.6574 13.869 83.5202 13.9011 83.4517 13.9149C81.7159 13.8942 79.9801 13.9126 78.247 13.9011C78.2361 12.7436 78.247 11.5861 78.2388 10.4285C78.2525 8.99772 78.2443 7.56919 78.2416 6.13837C82.6811 6.12918 87.1153 6.24861 91.5548 6.20038C92.8409 6.20727 94.1627 5.47692 94.3875 4.37223C94.8647 3.03327 93.4963 1.54732 91.8291 1.58407C87.9187 1.51976 84.0056 1.58407 80.0925 1.55191C80.0925 2.07556 80.0925 2.60149 80.0843 3.12514C84.0632 3.09069 88.0449 3.11595 92.0238 3.11135C92.1691 3.22159 92.457 3.44207 92.5996 3.55231C92.649 4.03232 92.4872 4.59041 91.8044 4.63864C87.6966 4.68917 83.5833 4.63864 79.4755 4.6616C79.0532 4.65931 78.6282 4.68457 78.2251 4.57203C78.258 3.06083 78.258 1.54962 78.2251 0.0407042Z" fill="white"/>
<path d="M97.4231 0.0312508C100.053 -0.0284627 102.688 0.0174694 105.321 0.00828267C108.696 0.0151727 112.075 0.00369031 115.45 0.012877C115.467 1.57002 115.428 3.12716 115.469 4.68431C111.31 4.63378 107.144 4.67741 102.984 4.66134C102.987 5.17579 102.992 5.69025 102.998 6.2047C106.08 6.21159 109.162 6.20011 112.245 6.207C112.242 6.72375 112.253 7.2405 112.28 7.75725C108.567 7.76185 104.854 7.75955 101.144 7.75955C101.15 6.2047 101.103 4.64985 101.169 3.0973C105.34 3.0996 109.513 3.14324 113.681 3.07434C113.681 2.56678 113.681 2.05921 113.684 1.55394C108.885 1.56313 104.089 1.56542 99.2905 1.55394C99.3015 5.15053 99.2768 8.74712 99.3015 12.3437C104.092 12.3575 108.883 12.3575 113.673 12.3437C113.684 11.8315 113.687 11.3194 113.684 10.8072C109.505 10.8026 105.323 10.8072 101.144 10.8003C101.136 10.2836 101.136 9.76684 101.147 9.25009C105.913 9.25468 110.679 9.24779 115.445 9.25468C115.486 10.7866 115.431 12.323 115.475 13.8572C109.47 13.9674 103.453 13.8756 97.4423 13.9008C97.4231 9.27765 97.4615 4.65445 97.4231 0.0312508Z" fill="white"/>
</svg>
