<svg width="24" height="24" viewBox="0 0 24 24" fill="none" xmlns="http://www.w3.org/2000/svg">
    <g clip-path="url(#clip0_1946_1044)">
    <path d="M19.3201 23.1425H4.6801C4.19628 23.1454 3.71732 23.0459 3.2747 22.8505C2.83208 22.6551 2.43583 22.3683 2.11199 22.0088C1.78815 21.6494 1.54405 21.2254 1.39575 20.7649C1.24745 20.3044 1.1983 19.8176 1.25153 19.3368L2.4001 9.23961C2.44671 8.81838 2.6477 8.42934 2.96428 8.14759C3.28086 7.86583 3.69059 7.71133 4.11438 7.7139H19.8858C20.3096 7.71133 20.7193 7.86583 21.0359 8.14759C21.3525 8.42934 21.5535 8.81838 21.6001 9.23961L22.7144 19.3368C22.7673 19.8148 22.719 20.2986 22.5728 20.7567C22.4265 21.2149 22.1855 21.6371 21.8653 21.996C21.5452 22.355 21.1532 22.6425 20.7147 22.84C20.2762 23.0375 19.801 23.1406 19.3201 23.1425Z" stroke="#A27738" stroke-linecap="round" stroke-linejoin="round"/>
    <path d="M5.14307 7.71408C5.14307 5.89545 5.86551 4.15131 7.15148 2.86534C8.43744 1.57938 10.1816 0.856934 12.0002 0.856934C13.8188 0.856934 15.563 1.57938 16.8489 2.86534C18.1349 4.15131 18.8574 5.89545 18.8574 7.71408M7.7145 12.8569H16.2859" stroke="#A27738" stroke-linecap="round" stroke-linejoin="round"/>
    </g>
    <defs>
    <clipPath id="clip0_1946_1044">
    <rect width="24" height="24" fill="white"/>
    </clipPath>
    </defs>
</svg>
