<svg width="16" height="18" viewBox="0 0 16 18" fill="none" xmlns="http://www.w3.org/2000/svg">
<path d="M5.5 8.33301H3.83333L3.83333 9.99967H5.5V8.33301ZM8.83333 8.33301H7.16667V9.99967L8.83333 9.99967V8.33301ZM12.1667 8.33301L10.5 8.33301V9.99967H12.1667V8.33301ZM13.8333 2.49967H13V0.833008L11.3333 0.833008V2.49967L4.66667 2.49967V0.833008L3 0.833008V2.49967H2.16667C1.72464 2.49967 1.30072 2.67527 0.988155 2.98783C0.675595 3.30039 0.5 3.72431 0.5 4.16634L0.5 15.833C0.5 16.275 0.675595 16.699 0.988155 17.0115C1.30072 17.3241 1.72464 17.4997 2.16667 17.4997H13.8333C14.2754 17.4997 14.6993 17.3241 15.0118 17.0115C15.3244 16.699 15.5 16.275 15.5 15.833L15.5 4.16634C15.5 3.72431 15.3244 3.30039 15.0118 2.98783C14.6993 2.67527 14.2754 2.49967 13.8333 2.49967ZM13.8333 15.833L2.16667 15.833L2.16667 6.66634L13.8333 6.66634L13.8333 15.833Z" fill="#9BA5B7"/>
</svg>
