<svg width="20" height="20" viewBox="0 0 20 20" fill="none" xmlns="http://www.w3.org/2000/svg">
<path d="M10 4.16699C9.22645 4.16699 8.48459 4.47428 7.93761 5.02126C7.39062 5.56825 7.08333 6.31011 7.08333 7.08366C7.08333 7.85721 7.39062 8.59907 7.93761 9.14605C8.48459 9.69303 9.22645 10.0003 10 10.0003C10.7735 10.0003 11.5154 9.69303 12.0624 9.14605C12.6094 8.59907 12.9167 7.85721 12.9167 7.08366C12.9167 6.31011 12.6094 5.56825 12.0624 5.02126C11.5154 4.47428 10.7735 4.16699 10 4.16699ZM10 5.83366C10.3315 5.83366 10.6495 5.96535 10.8839 6.19978C11.1183 6.4342 11.25 6.75214 11.25 7.08366C11.25 7.41518 11.1183 7.73312 10.8839 7.96754C10.6495 8.20196 10.3315 8.33366 10 8.33366C9.66848 8.33366 9.35054 8.20196 9.11612 7.96754C8.8817 7.73312 8.75 7.41518 8.75 7.08366C8.75 6.75214 8.8817 6.4342 9.11612 6.19978C9.35054 5.96535 9.66848 5.83366 10 5.83366ZM4.58333 6.66699C4.0308 6.66699 3.5009 6.88649 3.11019 7.27719C2.71949 7.66789 2.5 8.19779 2.5 8.75033C2.5 9.53366 2.94167 10.2087 3.575 10.567C3.875 10.7337 4.21667 10.8337 4.58333 10.8337C4.95 10.8337 5.29167 10.7337 5.59167 10.567C5.9 10.392 6.15833 10.142 6.35 9.84199C5.7429 9.0508 5.41473 8.08093 5.41667 7.08366V6.85033C5.16667 6.73366 4.88333 6.66699 4.58333 6.66699ZM15.4167 6.66699C15.1167 6.66699 14.8333 6.73366 14.5833 6.85033V7.08366C14.5833 8.08366 14.2583 9.05033 13.65 9.84199C13.75 10.0003 13.8583 10.1253 13.9833 10.2503C14.3676 10.6229 14.8814 10.832 15.4167 10.8337C15.7833 10.8337 16.125 10.7337 16.425 10.567C17.0583 10.2087 17.5 9.53366 17.5 8.75033C17.5 8.19779 17.2805 7.66789 16.8898 7.27719C16.4991 6.88649 15.9692 6.66699 15.4167 6.66699ZM10 11.667C8.05 11.667 4.16667 12.642 4.16667 14.5837V15.8337H15.8333V14.5837C15.8333 12.642 11.95 11.667 10 11.667ZM3.925 12.1253C2.31667 12.317 0 13.1337 0 14.5837V15.8337H2.5V14.2253C2.5 13.3837 3.075 12.6837 3.925 12.1253ZM16.075 12.1253C16.925 12.6837 17.5 13.3837 17.5 14.2253V15.8337H20V14.5837C20 13.1337 17.6833 12.317 16.075 12.1253ZM10 13.3337C11.275 13.3337 12.7 13.7503 13.525 14.167H6.475C7.3 13.7503 8.725 13.3337 10 13.3337Z" fill="#D4B483"/>
</svg>
