<svg width="24" height="24" viewBox="0 0 24 24" fill="none" xmlns="http://www.w3.org/2000/svg">
<g clip-path="url(#clip0_1882_973)">
<path d="M19.3201 23.1434H4.6801C4.19628 23.1464 3.71732 23.0469 3.2747 22.8515C2.83208 22.6561 2.43583 22.3693 2.11199 22.0098C1.78815 21.6503 1.54405 21.2264 1.39575 20.7659C1.24745 20.3053 1.1983 19.8186 1.25153 19.3377L2.4001 9.24059C2.44671 8.81936 2.6477 8.43032 2.96428 8.14856C3.28086 7.86681 3.69059 7.7123 4.11438 7.71488H19.8858C20.3096 7.7123 20.7193 7.86681 21.0359 8.14856C21.3525 8.43032 21.5535 8.81936 21.6001 9.24059L22.7144 19.3377C22.7673 19.8157 22.719 20.2995 22.5728 20.7577C22.4265 21.2158 22.1855 21.6381 21.8653 21.997C21.5452 22.3559 21.1532 22.6435 20.7147 22.841C20.2762 23.0385 19.801 23.1416 19.3201 23.1434Z" stroke="white" stroke-opacity="0.5" stroke-linecap="round" stroke-linejoin="round"/>
<path d="M5.14307 7.71456C5.14307 5.89594 5.86551 4.1518 7.15148 2.86583C8.43744 1.57987 10.1816 0.857422 12.0002 0.857422C13.8188 0.857422 15.563 1.57987 16.8489 2.86583C18.1349 4.1518 18.8574 5.89594 18.8574 7.71456M7.7145 12.8574H16.2859" stroke="white" stroke-opacity="0.5" stroke-linecap="round" stroke-linejoin="round"/>
</g>
<defs>
<clipPath id="clip0_1882_973">
<rect width="24" height="24" fill="white"/>
</clipPath>
</defs>
</svg>
