<svg width="16" height="16" viewBox="0 0 16 16" fill="none" xmlns="http://www.w3.org/2000/svg">
<path d="M4.66699 14C4.30033 14 3.98633 13.8693 3.72499 13.608C3.46366 13.3467 3.33322 13.0329 3.33366 12.6667V4C3.14477 4 2.98633 3.936 2.85833 3.808C2.73033 3.68 2.66655 3.52178 2.66699 3.33334C2.66699 3.14445 2.73099 2.986 2.85899 2.858C2.98699 2.73 3.14522 2.66622 3.33366 2.66667H6.00033C6.00033 2.47778 6.06433 2.31934 6.19233 2.19134C6.32033 2.06334 6.47855 1.99956 6.66699 2H9.33366C9.52255 2 9.68099 2.064 9.809 2.192C9.937 2.32 10.0008 2.47822 10.0003 2.66667H12.667C12.8559 2.66667 13.0143 2.73067 13.1423 2.85867C13.2703 2.98667 13.3341 3.14489 13.3337 3.33334C13.3337 3.52222 13.2697 3.68067 13.1417 3.80867C13.0137 3.93667 12.8554 4.00045 12.667 4V12.6667C12.667 13.0333 12.5363 13.3473 12.275 13.6087C12.0137 13.87 11.6999 14.0004 11.3337 14H4.66699ZM8.00033 9.26667L9.26699 10.5333C9.38922 10.6556 9.54477 10.7167 9.73366 10.7167C9.92255 10.7167 10.0781 10.6556 10.2003 10.5333C10.3226 10.4111 10.3837 10.2556 10.3837 10.0667C10.3837 9.87778 10.3226 9.72222 10.2003 9.6L8.93366 8.33334L10.2003 7.06667C10.3226 6.94445 10.3837 6.78889 10.3837 6.6C10.3837 6.41111 10.3226 6.25556 10.2003 6.13334C10.0781 6.01111 9.92255 5.95 9.73366 5.95C9.54477 5.95 9.38922 6.01111 9.26699 6.13334L8.00033 7.4L6.73366 6.13334C6.61144 6.01111 6.45588 5.95 6.26699 5.95C6.07811 5.95 5.92255 6.01111 5.80033 6.13334C5.67811 6.25556 5.61699 6.41111 5.61699 6.6C5.61699 6.78889 5.67811 6.94445 5.80033 7.06667L7.06699 8.33334L5.80033 9.6C5.67811 9.72222 5.61699 9.87778 5.61699 10.0667C5.61699 10.2556 5.67811 10.4111 5.80033 10.5333C5.92255 10.6556 6.07811 10.7167 6.26699 10.7167C6.45588 10.7167 6.61144 10.6556 6.73366 10.5333L8.00033 9.26667Z" fill="#E45555"/>
</svg>
