<svg width="16" height="16" viewBox="0 0 16 16" fill="none" xmlns="http://www.w3.org/2000/svg">
<path d="M6.66699 3.50016V3.66683H9.33366V3.50016C9.33366 3.14654 9.19318 2.8074 8.94313 2.55735C8.69309 2.30731 8.35395 2.16683 8.00033 2.16683C7.6467 2.16683 7.30757 2.30731 7.05752 2.55735C6.80747 2.8074 6.66699 3.14654 6.66699 3.50016ZM5.83366 3.66683V3.50016C5.83366 2.92553 6.06193 2.37443 6.46826 1.9681C6.87459 1.56177 7.42569 1.3335 8.00033 1.3335C8.57496 1.3335 9.12606 1.56177 9.53239 1.9681C9.93872 2.37443 10.167 2.92553 10.167 3.50016V3.66683H13.917C14.0275 3.66683 14.1335 3.71073 14.2116 3.78887C14.2898 3.86701 14.3337 3.97299 14.3337 4.0835C14.3337 4.194 14.2898 4.29998 14.2116 4.37812C14.1335 4.45626 14.0275 4.50016 13.917 4.50016H12.9447L12.278 12.4522C12.2273 13.056 11.9517 13.6188 11.5056 14.029C11.0595 14.4392 10.4757 14.6669 9.86966 14.6668H6.13099C5.52506 14.6668 4.94125 14.4391 4.49526 14.0289C4.04927 13.6187 3.77364 13.056 3.72299 12.4522L3.05633 4.50016H2.08366C1.97315 4.50016 1.86717 4.45626 1.78903 4.37812C1.71089 4.29998 1.66699 4.194 1.66699 4.0835C1.66699 3.97299 1.71089 3.86701 1.78903 3.78887C1.86717 3.71073 1.97315 3.66683 2.08366 3.66683H5.83366ZM7.16699 6.75016C7.16699 6.69545 7.15622 6.64126 7.13528 6.59071C7.11434 6.54016 7.08364 6.49423 7.04495 6.45553C7.00626 6.41684 6.96033 6.38615 6.90978 6.36521C6.85922 6.34427 6.80504 6.3335 6.75033 6.3335C6.69561 6.3335 6.64143 6.34427 6.59087 6.36521C6.54032 6.38615 6.49439 6.41684 6.4557 6.45553C6.41701 6.49423 6.38632 6.54016 6.36538 6.59071C6.34444 6.64126 6.33366 6.69545 6.33366 6.75016V11.5835C6.33366 11.6382 6.34444 11.6924 6.36538 11.7429C6.38632 11.7935 6.41701 11.8394 6.4557 11.8781C6.49439 11.9168 6.54032 11.9475 6.59087 11.9684C6.64143 11.9894 6.69561 12.0002 6.75033 12.0002C6.80504 12.0002 6.85922 11.9894 6.90978 11.9684C6.96033 11.9475 7.00626 11.9168 7.04495 11.8781C7.08364 11.8394 7.11434 11.7935 7.13528 11.7429C7.15622 11.6924 7.16699 11.6382 7.16699 11.5835V6.75016ZM9.25033 6.3335C9.02033 6.3335 8.83366 6.52016 8.83366 6.75016V11.5835C8.83366 11.694 8.87756 11.8 8.9557 11.8781C9.03384 11.9563 9.13982 12.0002 9.25033 12.0002C9.36083 12.0002 9.46681 11.9563 9.54495 11.8781C9.62309 11.8 9.66699 11.694 9.66699 11.5835V6.75016C9.66699 6.52016 9.48033 6.3335 9.25033 6.3335Z" fill="#4E4033"/>
</svg>
