<svg width="20" height="20" viewBox="0 0 20 20" fill="none" xmlns="http://www.w3.org/2000/svg">
<path d="M7.9166 5.83327C8.60827 5.83327 9.1666 6.3916 9.1666 7.08327C9.1666 7.77493 8.60827 8.33327 7.9166 8.33327C7.22494 8.33327 6.6666 7.77493 6.6666 7.08327C6.6666 6.3916 7.22494 5.83327 7.9166 5.83327ZM12.0833 11.6666C12.7749 11.6666 13.3333 12.2249 13.3333 12.9166C13.3333 13.6083 12.7749 14.1666 12.0833 14.1666C11.3916 14.1666 10.8333 13.6083 10.8333 12.9166C10.8333 12.2249 11.3916 11.6666 12.0833 11.6666ZM7.00827 14.1666L5.83327 12.9916L12.9916 5.83327L14.1666 7.00827L7.00827 14.1666ZM15.5416 2.37493L16.0499 5.5916L18.9749 7.08327L17.4999 9.99994L18.9833 12.9166L16.0333 14.4083L15.5249 17.6249L12.2833 17.1166L9.97494 19.4249L7.65827 17.0833L4.4416 17.6166L3.92494 14.3749L1.0166 12.8916L2.49993 9.97494L1.02493 7.08327L3.94993 5.57493L4.45827 2.3916L7.68327 2.9166L9.99994 0.579102L12.2999 2.88327L15.5416 2.37493ZM16.7499 7.80827L14.5833 6.6666L14.1666 4.25827L11.7499 4.60827L9.99994 2.9166L8.24993 4.60827L5.83327 4.25827L5.4166 6.6666L3.24994 7.80827L4.33327 9.99994L3.24994 12.1916L5.4166 13.3333L5.83327 15.7416L8.24993 15.3916L9.99994 17.0833L11.7499 15.3916L14.1666 15.7416L14.5833 13.3333L16.7499 12.1916L15.6666 9.99994L16.7499 7.80827Z" fill="#D4B483"/>
</svg>
