 <svg width="25" height="25" viewBox="0 0 25 25" fill="none" xmlns="http://www.w3.org/2000/svg">
                <path d="M19.5 2.5V5.5M19.5 5.5V8.5M19.5 5.5H22.5M19.5 5.5H16.5" stroke="#364153" stroke-width="2" stroke-linecap="round" stroke-linejoin="round"/>
                <path fill-rule="evenodd" clip-rule="evenodd" d="M13.5 2.5H5.5C4.70435 2.5 3.94129 2.81607 3.37868 3.37868C2.81607 3.94129 2.5 4.70435 2.5 5.5V16C2.5 16.086 2.511 16.17 2.532 16.25C2.51083 16.3316 2.50008 16.4157 2.5 16.5V19.5C2.5 20.2956 2.81607 21.0587 3.37868 21.6213C3.94129 22.1839 4.70435 22.5 5.5 22.5H19.5C20.2956 22.5 21.0587 22.1839 21.6213 21.6213C22.1839 21.0587 22.5 20.2956 22.5 19.5V12.5C22.4999 12.4157 22.4892 12.3316 22.468 12.25C22.4892 12.1684 22.4999 12.0843 22.5 12V11.5H20.5V11.516C16.203 11.655 13.1 12.69 10.92 14.139C11.746 14.432 12.67 14.849 13.576 15.395C14.975 16.235 16.397 17.415 17.354 18.978C17.4226 19.09 17.4684 19.2144 17.4888 19.3442C17.5093 19.4739 17.504 19.6064 17.4733 19.7341C17.4425 19.8617 17.387 19.9821 17.3097 20.0883C17.2324 20.1945 17.135 20.2845 17.023 20.353C16.911 20.4216 16.7866 20.4674 16.6568 20.4878C16.5271 20.5083 16.3946 20.503 16.2669 20.4723C16.1393 20.4415 16.0189 20.386 15.9127 20.3087C15.8065 20.2314 15.7165 20.134 15.648 20.022C14.912 18.819 13.77 17.844 12.546 17.109C11.324 16.375 10.081 15.917 9.219 15.717C8.00471 15.4397 6.76137 15.3101 5.516 15.331H5.494C5.146 15.336 4.814 15.351 4.5 15.376V5.5C4.5 5.23478 4.60536 4.98043 4.79289 4.79289C4.98043 4.60536 5.23478 4.5 5.5 4.5H13.5V2.5ZM9 6.5C8.45484 6.50408 7.92389 6.67431 7.478 6.988C6.908 7.398 6.5 8.074 6.5 9C6.5 9.926 6.908 10.601 7.478 11.011C7.9236 11.3254 8.45467 11.496 9 11.5C9.41 11.5 10.003 11.385 10.522 11.011C11.092 10.601 11.5 9.926 11.5 9C11.5 8.074 11.092 7.399 10.522 6.988C10.0763 6.67397 9.54522 6.50369 9 6.5Z" fill="#364153"/>
                </svg>