<svg width="20" height="20" viewBox="0 0 20 20" fill="none" xmlns="http://www.w3.org/2000/svg">
<path d="M5.00016 18.3337C4.54183 18.3337 4.14933 18.1703 3.82266 17.8437C3.496 17.517 3.33294 17.1248 3.3335 16.667V6.66699C3.3335 6.20866 3.49683 5.81616 3.8235 5.48949C4.15016 5.16283 4.54239 4.99977 5.00016 5.00033H6.66683C6.66683 4.08366 6.99322 3.29894 7.646 2.64616C8.29878 1.99338 9.0835 1.66699 10.0002 1.66699C10.9168 1.66699 11.7016 1.99338 12.3543 2.64616C13.0071 3.29894 13.3335 4.08366 13.3335 5.00033H15.0002C15.4585 5.00033 15.851 5.16366 16.1777 5.49033C16.5043 5.81699 16.6674 6.20921 16.6668 6.66699V16.667C16.6668 17.1253 16.5035 17.5178 16.1768 17.8445C15.8502 18.1712 15.4579 18.3342 15.0002 18.3337H5.00016ZM5.00016 16.667H15.0002V6.66699H13.3335V8.33366C13.3335 8.56977 13.2535 8.76783 13.0935 8.92783C12.9335 9.08783 12.7357 9.16755 12.5002 9.16699C12.2641 9.16699 12.066 9.08699 11.906 8.92699C11.746 8.76699 11.6663 8.56921 11.6668 8.33366V6.66699H8.3335V8.33366C8.3335 8.56977 8.2535 8.76783 8.0935 8.92783C7.9335 9.08783 7.73572 9.16755 7.50016 9.16699C7.26405 9.16699 7.066 9.08699 6.906 8.92699C6.746 8.76699 6.66628 8.56921 6.66683 8.33366V6.66699H5.00016V16.667ZM8.3335 5.00033H11.6668C11.6668 4.54199 11.5035 4.14949 11.1768 3.82283C10.8502 3.49616 10.4579 3.3331 10.0002 3.33366C9.54183 3.33366 9.14933 3.49699 8.82266 3.82366C8.496 4.15033 8.33294 4.54255 8.3335 5.00033Z" fill="#D4B483"/>
</svg>
