<svg width="622" height="408" viewBox="0 0 702 408" fill="none" xmlns="http://www.w3.org/2000/svg">
<rect width="702" height="408" rx="10" fill="white"/>
<g opacity="0.3">
<path d="M685.801 36.0126C685.109 35.3292 683.985 35.3292 683.292 36.0126C682.6 36.696 682.6 37.804 683.292 38.4874C683.985 39.1709 685.109 39.1709 685.801 38.4874C686.494 37.8041 686.494 36.696 685.801 36.0126Z" fill="#312921"/>
<path d="M680.48 36.0126C679.787 35.3292 678.664 35.3292 677.971 36.0126C677.278 36.696 677.278 37.804 677.971 38.4874C678.664 39.1709 679.787 39.1709 680.48 38.4874C681.172 37.8041 681.172 36.696 680.48 36.0126Z" fill="#312921"/>
<path d="M675.157 36.0126C674.465 35.3292 673.341 35.3292 672.648 36.0126C671.956 36.696 671.956 37.804 672.648 38.4874C673.341 39.1709 674.465 39.1709 675.157 38.4874C675.85 37.8041 675.85 36.696 675.157 36.0126Z" fill="#312921"/>
</g>
<line opacity="0.05" x1="61.7859" y1="344.5" x2="691.566" y2="344.5" stroke="#99B2C6"/>
<line opacity="0.05" x1="61.7859" y1="293.5" x2="691.566" y2="293.5" stroke="#99B2C6"/>
<line opacity="0.05" x1="61.7859" y1="242.5" x2="691.566" y2="242.5" stroke="#99B2C6"/>
<line opacity="0.05" x1="61.7859" y1="191.5" x2="691.566" y2="191.5" stroke="#99B2C6"/>
<line opacity="0.05" x1="61.7859" y1="140.5" x2="691.566" y2="140.5" stroke="#99B2C6"/>
<line opacity="0.05" x1="61.7859" y1="89.5" x2="691.566" y2="89.5" stroke="#99B2C6"/>
<path d="M28.9274 90.32V89.324H31.1834V98H30.0794V90.32H28.9274ZM33.0592 93.572C33.0592 92.196 33.2832 91.124 33.7312 90.356C34.1792 89.58 34.9632 89.192 36.0832 89.192C37.1952 89.192 37.9752 89.58 38.4232 90.356C38.8712 91.124 39.0952 92.196 39.0952 93.572C39.0952 94.972 38.8712 96.06 38.4232 96.836C37.9752 97.612 37.1952 98 36.0832 98C34.9632 98 34.1792 97.612 33.7312 96.836C33.2832 96.06 33.0592 94.972 33.0592 93.572ZM38.0152 93.572C38.0152 92.876 37.9672 92.288 37.8712 91.808C37.7832 91.32 37.5952 90.928 37.3072 90.632C37.0272 90.336 36.6192 90.188 36.0832 90.188C35.5392 90.188 35.1232 90.336 34.8352 90.632C34.5552 90.928 34.3672 91.32 34.2712 91.808C34.1832 92.288 34.1392 92.876 34.1392 93.572C34.1392 94.292 34.1832 94.896 34.2712 95.384C34.3672 95.872 34.5552 96.264 34.8352 96.56C35.1232 96.856 35.5392 97.004 36.0832 97.004C36.6192 97.004 37.0272 96.856 37.3072 96.56C37.5952 96.264 37.7832 95.872 37.8712 95.384C37.9672 94.896 38.0152 94.292 38.0152 93.572ZM40.5943 93.572C40.5943 92.196 40.8183 91.124 41.2663 90.356C41.7143 89.58 42.4983 89.192 43.6183 89.192C44.7303 89.192 45.5103 89.58 45.9583 90.356C46.4063 91.124 46.6303 92.196 46.6303 93.572C46.6303 94.972 46.4063 96.06 45.9583 96.836C45.5103 97.612 44.7303 98 43.6183 98C42.4983 98 41.7143 97.612 41.2663 96.836C40.8183 96.06 40.5943 94.972 40.5943 93.572ZM45.5503 93.572C45.5503 92.876 45.5023 92.288 45.4063 91.808C45.3183 91.32 45.1303 90.928 44.8423 90.632C44.5623 90.336 44.1543 90.188 43.6183 90.188C43.0743 90.188 42.6583 90.336 42.3703 90.632C42.0903 90.928 41.9023 91.32 41.8063 91.808C41.7183 92.288 41.6743 92.876 41.6743 93.572C41.6743 94.292 41.7183 94.896 41.8063 95.384C41.9023 95.872 42.0903 96.264 42.3703 96.56C42.6583 96.856 43.0743 97.004 43.6183 97.004C44.1543 97.004 44.5623 96.856 44.8423 96.56C45.1303 96.264 45.3183 95.872 45.4063 95.384C45.5023 94.896 45.5503 94.292 45.5503 93.572Z" fill="#4E4033" fill-opacity="0.5"/>
<path d="M34.608 141.488C34.16 141.312 33.816 141.056 33.576 140.72C33.336 140.384 33.216 139.976 33.216 139.496C33.216 139.064 33.324 138.676 33.54 138.332C33.756 137.98 34.076 137.704 34.5 137.504C34.932 137.296 35.452 137.192 36.06 137.192C36.668 137.192 37.184 137.296 37.608 137.504C38.04 137.704 38.364 137.98 38.58 138.332C38.804 138.676 38.916 139.064 38.916 139.496C38.916 139.96 38.792 140.368 38.544 140.72C38.296 141.064 37.956 141.32 37.524 141.488C38.02 141.64 38.412 141.908 38.7 142.292C38.996 142.668 39.144 143.124 39.144 143.66C39.144 144.18 39.016 144.636 38.76 145.028C38.504 145.412 38.14 145.712 37.668 145.928C37.204 146.136 36.668 146.24 36.06 146.24C35.452 146.24 34.916 146.136 34.452 145.928C33.996 145.712 33.64 145.412 33.384 145.028C33.128 144.636 33 144.18 33 143.66C33 143.124 33.144 142.664 33.432 142.28C33.72 141.896 34.112 141.632 34.608 141.488ZM37.86 139.628C37.86 139.14 37.7 138.764 37.38 138.5C37.06 138.236 36.62 138.104 36.06 138.104C35.508 138.104 35.072 138.236 34.752 138.5C34.432 138.764 34.272 139.144 34.272 139.64C34.272 140.088 34.436 140.448 34.764 140.72C35.1 140.992 35.532 141.128 36.06 141.128C36.596 141.128 37.028 140.992 37.356 140.72C37.692 140.44 37.86 140.076 37.86 139.628ZM36.06 141.968C35.468 141.968 34.984 142.108 34.608 142.388C34.232 142.66 34.044 143.072 34.044 143.624C34.044 144.136 34.224 144.548 34.584 144.86C34.952 145.172 35.444 145.328 36.06 145.328C36.676 145.328 37.164 145.172 37.524 144.86C37.884 144.548 38.064 144.136 38.064 143.624C38.064 143.088 37.88 142.68 37.512 142.4C37.144 142.112 36.66 141.968 36.06 141.968ZM40.5943 141.572C40.5943 140.196 40.8183 139.124 41.2663 138.356C41.7143 137.58 42.4983 137.192 43.6183 137.192C44.7303 137.192 45.5103 137.58 45.9583 138.356C46.4063 139.124 46.6303 140.196 46.6303 141.572C46.6303 142.972 46.4063 144.06 45.9583 144.836C45.5103 145.612 44.7303 146 43.6183 146C42.4983 146 41.7143 145.612 41.2663 144.836C40.8183 144.06 40.5943 142.972 40.5943 141.572ZM45.5503 141.572C45.5503 140.876 45.5023 140.288 45.4063 139.808C45.3183 139.32 45.1303 138.928 44.8423 138.632C44.5623 138.336 44.1543 138.188 43.6183 138.188C43.0743 138.188 42.6583 138.336 42.3703 138.632C42.0903 138.928 41.9023 139.32 41.8063 139.808C41.7183 140.288 41.6743 140.876 41.6743 141.572C41.6743 142.292 41.7183 142.896 41.8063 143.384C41.9023 143.872 42.0903 144.264 42.3703 144.56C42.6583 144.856 43.0743 145.004 43.6183 145.004C44.1543 145.004 44.5623 144.856 44.8423 144.56C45.1303 144.264 45.3183 143.872 45.4063 143.384C45.5023 142.896 45.5503 142.292 45.5503 141.572Z" fill="#4E4033" fill-opacity="0.5"/>
<path d="M37.8132 187.388C37.6372 186.5 37.0892 186.056 36.1692 186.056C35.4572 186.056 34.9252 186.332 34.5732 186.884C34.2212 187.428 34.0492 188.328 34.0572 189.584C34.2412 189.168 34.5452 188.844 34.9692 188.612C35.4012 188.372 35.8812 188.252 36.4092 188.252C37.2332 188.252 37.8892 188.508 38.3772 189.02C38.8732 189.532 39.1212 190.24 39.1212 191.144C39.1212 191.688 39.0132 192.176 38.7972 192.608C38.5892 193.04 38.2692 193.384 37.8372 193.64C37.4132 193.896 36.8972 194.024 36.2892 194.024C35.4652 194.024 34.8212 193.84 34.3572 193.472C33.8932 193.104 33.5692 192.596 33.3852 191.948C33.2012 191.3 33.1092 190.5 33.1092 189.548C33.1092 186.612 34.1332 185.144 36.1812 185.144C36.9652 185.144 37.5812 185.356 38.0292 185.78C38.4772 186.204 38.7412 186.74 38.8212 187.388H37.8132ZM36.1812 189.176C35.8372 189.176 35.5132 189.248 35.2092 189.392C34.9052 189.528 34.6572 189.74 34.4652 190.028C34.2812 190.308 34.1892 190.652 34.1892 191.06C34.1892 191.668 34.3652 192.164 34.7172 192.548C35.0692 192.924 35.5732 193.112 36.2292 193.112C36.7892 193.112 37.2332 192.94 37.5612 192.596C37.8972 192.244 38.0652 191.772 38.0652 191.18C38.0652 190.556 37.9052 190.068 37.5852 189.716C37.2652 189.356 36.7972 189.176 36.1812 189.176ZM40.5943 189.572C40.5943 188.196 40.8183 187.124 41.2663 186.356C41.7143 185.58 42.4983 185.192 43.6183 185.192C44.7303 185.192 45.5103 185.58 45.9583 186.356C46.4063 187.124 46.6303 188.196 46.6303 189.572C46.6303 190.972 46.4063 192.06 45.9583 192.836C45.5103 193.612 44.7303 194 43.6183 194C42.4983 194 41.7143 193.612 41.2663 192.836C40.8183 192.06 40.5943 190.972 40.5943 189.572ZM45.5503 189.572C45.5503 188.876 45.5023 188.288 45.4063 187.808C45.3183 187.32 45.1303 186.928 44.8423 186.632C44.5623 186.336 44.1543 186.188 43.6183 186.188C43.0743 186.188 42.6583 186.336 42.3703 186.632C42.0903 186.928 41.9023 187.32 41.8063 187.808C41.7183 188.288 41.6743 188.876 41.6743 189.572C41.6743 190.292 41.7183 190.896 41.8063 191.384C41.9023 191.872 42.0903 192.264 42.3703 192.56C42.6583 192.856 43.0743 193.004 43.6183 193.004C44.1543 193.004 44.5623 192.856 44.8423 192.56C45.1303 192.264 45.3183 191.872 45.4063 191.384C45.5023 190.896 45.5503 190.292 45.5503 189.572Z" fill="#4E4033" fill-opacity="0.5"/>
<path d="M32.7835 240.068V239.24L36.9955 233.408H38.3035V239.12H39.5035V240.068H38.3035V242H37.2235V240.068H32.7835ZM37.2715 234.548L34.0435 239.12H37.2715V234.548ZM40.5943 237.572C40.5943 236.196 40.8183 235.124 41.2663 234.356C41.7143 233.58 42.4983 233.192 43.6183 233.192C44.7303 233.192 45.5103 233.58 45.9583 234.356C46.4063 235.124 46.6303 236.196 46.6303 237.572C46.6303 238.972 46.4063 240.06 45.9583 240.836C45.5103 241.612 44.7303 242 43.6183 242C42.4983 242 41.7143 241.612 41.2663 240.836C40.8183 240.06 40.5943 238.972 40.5943 237.572ZM45.5503 237.572C45.5503 236.876 45.5023 236.288 45.4063 235.808C45.3183 235.32 45.1303 234.928 44.8423 234.632C44.5623 234.336 44.1543 234.188 43.6183 234.188C43.0743 234.188 42.6583 234.336 42.3703 234.632C42.0903 234.928 41.9023 235.32 41.8063 235.808C41.7183 236.288 41.6743 236.876 41.6743 237.572C41.6743 238.292 41.7183 238.896 41.8063 239.384C41.9023 239.872 42.0903 240.264 42.3703 240.56C42.6583 240.856 43.0743 241.004 43.6183 241.004C44.1543 241.004 44.5623 240.856 44.8423 240.56C45.1303 240.264 45.3183 239.872 45.4063 239.384C45.5023 238.896 45.5503 238.292 45.5503 237.572Z" fill="#4E4033" fill-opacity="0.5"/>
<path d="M33.56 289.124C34.576 288.308 35.372 287.64 35.948 287.12C36.524 286.592 37.008 286.044 37.4 285.476C37.8 284.9 38 284.336 38 283.784C38 283.264 37.872 282.856 37.616 282.56C37.368 282.256 36.964 282.104 36.404 282.104C35.86 282.104 35.436 282.276 35.132 282.62C34.836 282.956 34.676 283.408 34.652 283.976H33.596C33.628 283.08 33.9 282.388 34.412 281.9C34.924 281.412 35.584 281.168 36.392 281.168C37.216 281.168 37.868 281.396 38.348 281.852C38.836 282.308 39.08 282.936 39.08 283.736C39.08 284.4 38.88 285.048 38.48 285.68C38.088 286.304 37.64 286.856 37.136 287.336C36.632 287.808 35.988 288.36 35.204 288.992H39.332V289.904H33.56V289.124ZM40.5943 285.572C40.5943 284.196 40.8183 283.124 41.2663 282.356C41.7143 281.58 42.4983 281.192 43.6183 281.192C44.7303 281.192 45.5103 281.58 45.9583 282.356C46.4063 283.124 46.6303 284.196 46.6303 285.572C46.6303 286.972 46.4063 288.06 45.9583 288.836C45.5103 289.612 44.7303 290 43.6183 290C42.4983 290 41.7143 289.612 41.2663 288.836C40.8183 288.06 40.5943 286.972 40.5943 285.572ZM45.5503 285.572C45.5503 284.876 45.5023 284.288 45.4063 283.808C45.3183 283.32 45.1303 282.928 44.8423 282.632C44.5623 282.336 44.1543 282.188 43.6183 282.188C43.0743 282.188 42.6583 282.336 42.3703 282.632C42.0903 282.928 41.9023 283.32 41.8063 283.808C41.7183 284.288 41.6743 284.876 41.6743 285.572C41.6743 286.292 41.7183 286.896 41.8063 287.384C41.9023 287.872 42.0903 288.264 42.3703 288.56C42.6583 288.856 43.0743 289.004 43.6183 289.004C44.1543 289.004 44.5623 288.856 44.8423 288.56C45.1303 288.264 45.3183 287.872 45.4063 287.384C45.5023 286.896 45.5503 286.292 45.5503 285.572Z" fill="#4E4033" fill-opacity="0.5"/>
<path d="M40.5943 333.572C40.5943 332.196 40.8183 331.124 41.2663 330.356C41.7143 329.58 42.4983 329.192 43.6183 329.192C44.7303 329.192 45.5103 329.58 45.9583 330.356C46.4063 331.124 46.6303 332.196 46.6303 333.572C46.6303 334.972 46.4063 336.06 45.9583 336.836C45.5103 337.612 44.7303 338 43.6183 338C42.4983 338 41.7143 337.612 41.2663 336.836C40.8183 336.06 40.5943 334.972 40.5943 333.572ZM45.5503 333.572C45.5503 332.876 45.5023 332.288 45.4063 331.808C45.3183 331.32 45.1303 330.928 44.8423 330.632C44.5623 330.336 44.1543 330.188 43.6183 330.188C43.0743 330.188 42.6583 330.336 42.3703 330.632C42.0903 330.928 41.9023 331.32 41.8063 331.808C41.7183 332.288 41.6743 332.876 41.6743 333.572C41.6743 334.292 41.7183 334.896 41.8063 335.384C41.9023 335.872 42.0903 336.264 42.3703 336.56C42.6583 336.856 43.0743 337.004 43.6183 337.004C44.1543 337.004 44.5623 336.856 44.8423 336.56C45.1303 336.264 45.3183 335.872 45.4063 335.384C45.5023 334.896 45.5503 334.292 45.5503 333.572Z" fill="#4E4033" fill-opacity="0.5"/>
<path d="M61.136 360.636V366.816C61.136 367.504 60.924 368.056 60.5 368.472C60.076 368.88 59.516 369.084 58.82 369.084C58.116 369.084 57.552 368.876 57.128 368.46C56.704 368.036 56.492 367.46 56.492 366.732H57.584C57.592 367.14 57.696 367.472 57.896 367.728C58.104 367.984 58.412 368.112 58.82 368.112C59.228 368.112 59.532 367.992 59.732 367.752C59.932 367.504 60.032 367.192 60.032 366.816V360.636H61.136ZM62.8793 365.688C62.8793 365.016 63.0153 364.428 63.2873 363.924C63.5593 363.412 63.9313 363.016 64.4033 362.736C64.8833 362.456 65.4153 362.316 65.9993 362.316C66.5753 362.316 67.0753 362.44 67.4993 362.688C67.9233 362.936 68.2393 363.248 68.4473 363.624V362.424H69.5513V369H68.4473V367.776C68.2313 368.16 67.9073 368.48 67.4753 368.736C67.0513 368.984 66.5553 369.108 65.9873 369.108C65.4033 369.108 64.8753 368.964 64.4033 368.676C63.9313 368.388 63.5593 367.984 63.2873 367.464C63.0153 366.944 62.8793 366.352 62.8793 365.688ZM68.4473 365.7C68.4473 365.204 68.3473 364.772 68.1473 364.404C67.9473 364.036 67.6753 363.756 67.3313 363.564C66.9953 363.364 66.6233 363.264 66.2153 363.264C65.8073 363.264 65.4353 363.36 65.0993 363.552C64.7633 363.744 64.4953 364.024 64.2953 364.392C64.0953 364.76 63.9953 365.192 63.9953 365.688C63.9953 366.192 64.0953 366.632 64.2953 367.008C64.4953 367.376 64.7633 367.66 65.0993 367.86C65.4353 368.052 65.8073 368.148 66.2153 368.148C66.6233 368.148 66.9953 368.052 67.3313 367.86C67.6753 367.66 67.9473 367.376 68.1473 367.008C68.3473 366.632 68.4473 366.196 68.4473 365.7ZM74.6007 362.304C75.4007 362.304 76.0487 362.548 76.5447 363.036C77.0407 363.516 77.2887 364.212 77.2887 365.124V369H76.2087V365.28C76.2087 364.624 76.0447 364.124 75.7167 363.78C75.3887 363.428 74.9407 363.252 74.3727 363.252C73.7967 363.252 73.3367 363.432 72.9927 363.792C72.6567 364.152 72.4887 364.676 72.4887 365.364V369H71.3967V362.424H72.4887V363.36C72.7047 363.024 72.9967 362.764 73.3647 362.58C73.7407 362.396 74.1527 362.304 74.6007 362.304Z" fill="#4E4033" fill-opacity="0.5"/>
<path d="M116.652 360.636V361.524H113.016V364.344H115.968V365.232H113.016V369H111.924V360.636H116.652ZM123.971 365.46C123.971 365.668 123.959 365.888 123.935 366.12H118.679C118.719 366.768 118.939 367.276 119.339 367.644C119.747 368.004 120.239 368.184 120.815 368.184C121.287 368.184 121.679 368.076 121.991 367.86C122.311 367.636 122.535 367.34 122.663 366.972H123.839C123.663 367.604 123.311 368.12 122.783 368.52C122.255 368.912 121.599 369.108 120.815 369.108C120.191 369.108 119.631 368.968 119.135 368.688C118.647 368.408 118.263 368.012 117.983 367.5C117.703 366.98 117.563 366.38 117.563 365.7C117.563 365.02 117.699 364.424 117.971 363.912C118.243 363.4 118.623 363.008 119.111 362.736C119.607 362.456 120.175 362.316 120.815 362.316C121.439 362.316 121.991 362.452 122.471 362.724C122.951 362.996 123.319 363.372 123.575 363.852C123.839 364.324 123.971 364.86 123.971 365.46ZM122.843 365.232C122.843 364.816 122.751 364.46 122.567 364.164C122.383 363.86 122.131 363.632 121.811 363.48C121.499 363.32 121.151 363.24 120.767 363.24C120.215 363.24 119.743 363.416 119.351 363.768C118.967 364.12 118.747 364.608 118.691 365.232H122.843ZM126.504 363.648C126.728 363.256 127.056 362.936 127.488 362.688C127.92 362.44 128.412 362.316 128.964 362.316C129.556 362.316 130.088 362.456 130.56 362.736C131.032 363.016 131.404 363.412 131.676 363.924C131.948 364.428 132.084 365.016 132.084 365.688C132.084 366.352 131.948 366.944 131.676 367.464C131.404 367.984 131.028 368.388 130.548 368.676C130.076 368.964 129.548 369.108 128.964 369.108C128.396 369.108 127.896 368.984 127.464 368.736C127.04 368.488 126.72 368.172 126.504 367.788V369H125.412V360.12H126.504V363.648ZM130.968 365.688C130.968 365.192 130.868 364.76 130.668 364.392C130.468 364.024 130.196 363.744 129.852 363.552C129.516 363.36 129.144 363.264 128.736 363.264C128.336 363.264 127.964 363.364 127.62 363.564C127.284 363.756 127.012 364.04 126.804 364.416C126.604 364.784 126.504 365.212 126.504 365.7C126.504 366.196 126.604 366.632 126.804 367.008C127.012 367.376 127.284 367.66 127.62 367.86C127.964 368.052 128.336 368.148 128.736 368.148C129.144 368.148 129.516 368.052 129.852 367.86C130.196 367.66 130.468 367.376 130.668 367.008C130.868 366.632 130.968 366.192 130.968 365.688Z" fill="#4E4033" fill-opacity="0.5"/>
<path d="M174.408 360.696V369H173.316V362.808L170.556 369H169.788L167.016 362.796V369H165.924V360.696H167.1L170.172 367.56L173.244 360.696H174.408ZM175.852 365.688C175.852 365.016 175.988 364.428 176.26 363.924C176.532 363.412 176.904 363.016 177.376 362.736C177.856 362.456 178.388 362.316 178.972 362.316C179.548 362.316 180.048 362.44 180.472 362.688C180.896 362.936 181.212 363.248 181.42 363.624V362.424H182.524V369H181.42V367.776C181.204 368.16 180.88 368.48 180.448 368.736C180.024 368.984 179.528 369.108 178.96 369.108C178.376 369.108 177.848 368.964 177.376 368.676C176.904 368.388 176.532 367.984 176.26 367.464C175.988 366.944 175.852 366.352 175.852 365.688ZM181.42 365.7C181.42 365.204 181.32 364.772 181.12 364.404C180.92 364.036 180.648 363.756 180.304 363.564C179.968 363.364 179.596 363.264 179.188 363.264C178.78 363.264 178.408 363.36 178.072 363.552C177.736 363.744 177.468 364.024 177.268 364.392C177.068 364.76 176.968 365.192 176.968 365.688C176.968 366.192 177.068 366.632 177.268 367.008C177.468 367.376 177.736 367.66 178.072 367.86C178.408 368.052 178.78 368.148 179.188 368.148C179.596 368.148 179.968 368.052 180.304 367.86C180.648 367.66 180.92 367.376 181.12 367.008C181.32 366.632 181.42 366.196 181.42 365.7ZM185.461 363.492C185.653 363.116 185.925 362.824 186.277 362.616C186.637 362.408 187.073 362.304 187.585 362.304V363.432H187.297C186.073 363.432 185.461 364.096 185.461 365.424V369H184.369V362.424H185.461V363.492Z" fill="#4E4033" fill-opacity="0.5"/>
<path d="M225.868 367.14H222.22L221.548 369H220.396L223.42 360.684H224.68L227.692 369H226.54L225.868 367.14ZM225.556 366.252L224.044 362.028L222.532 366.252H225.556ZM230.102 363.636C230.318 363.26 230.638 362.948 231.062 362.7C231.494 362.444 231.994 362.316 232.562 362.316C233.146 362.316 233.674 362.456 234.146 362.736C234.626 363.016 235.002 363.412 235.274 363.924C235.546 364.428 235.682 365.016 235.682 365.688C235.682 366.352 235.546 366.944 235.274 367.464C235.002 367.984 234.626 368.388 234.146 368.676C233.674 368.964 233.146 369.108 232.562 369.108C232.002 369.108 231.506 368.984 231.074 368.736C230.65 368.48 230.326 368.164 230.102 367.788V372.12H229.01V362.424H230.102V363.636ZM234.566 365.688C234.566 365.192 234.466 364.76 234.266 364.392C234.066 364.024 233.794 363.744 233.45 363.552C233.114 363.36 232.742 363.264 232.334 363.264C231.934 363.264 231.562 363.364 231.218 363.564C230.882 363.756 230.61 364.04 230.402 364.416C230.202 364.784 230.102 365.212 230.102 365.7C230.102 366.196 230.202 366.632 230.402 367.008C230.61 367.376 230.882 367.66 231.218 367.86C231.562 368.052 231.934 368.148 232.334 368.148C232.742 368.148 233.114 368.052 233.45 367.86C233.794 367.66 234.066 367.376 234.266 367.008C234.466 366.632 234.566 366.192 234.566 365.688ZM238.211 363.492C238.403 363.116 238.675 362.824 239.027 362.616C239.387 362.408 239.823 362.304 240.335 362.304V363.432H240.047C238.823 363.432 238.211 364.096 238.211 365.424V369H237.119V362.424H238.211V363.492ZM242.16 361.356C241.952 361.356 241.776 361.284 241.632 361.14C241.488 360.996 241.416 360.82 241.416 360.612C241.416 360.404 241.488 360.228 241.632 360.084C241.776 359.94 241.952 359.868 242.16 359.868C242.36 359.868 242.528 359.94 242.664 360.084C242.808 360.228 242.88 360.404 242.88 360.612C242.88 360.82 242.808 360.996 242.664 361.14C242.528 361.284 242.36 361.356 242.16 361.356ZM242.688 362.424V369H241.596V362.424H242.688ZM245.641 360.12V369H244.549V360.12H245.641Z" fill="#4E4033" fill-opacity="0.5"/>
<path d="M288.408 360.696V369H287.316V362.808L284.556 369H283.788L281.016 362.796V369H279.924V360.696H281.1L284.172 367.56L287.244 360.696H288.408ZM289.852 365.688C289.852 365.016 289.988 364.428 290.26 363.924C290.532 363.412 290.904 363.016 291.376 362.736C291.856 362.456 292.388 362.316 292.972 362.316C293.548 362.316 294.048 362.44 294.472 362.688C294.896 362.936 295.212 363.248 295.42 363.624V362.424H296.524V369H295.42V367.776C295.204 368.16 294.88 368.48 294.448 368.736C294.024 368.984 293.528 369.108 292.96 369.108C292.376 369.108 291.848 368.964 291.376 368.676C290.904 368.388 290.532 367.984 290.26 367.464C289.988 366.944 289.852 366.352 289.852 365.688ZM295.42 365.7C295.42 365.204 295.32 364.772 295.12 364.404C294.92 364.036 294.648 363.756 294.304 363.564C293.968 363.364 293.596 363.264 293.188 363.264C292.78 363.264 292.408 363.36 292.072 363.552C291.736 363.744 291.468 364.024 291.268 364.392C291.068 364.76 290.968 365.192 290.968 365.688C290.968 366.192 291.068 366.632 291.268 367.008C291.468 367.376 291.736 367.66 292.072 367.86C292.408 368.052 292.78 368.148 293.188 368.148C293.596 368.148 293.968 368.052 294.304 367.86C294.648 367.66 294.92 367.376 295.12 367.008C295.32 366.632 295.42 366.196 295.42 365.7ZM304.033 362.424L300.073 372.096H298.945L300.241 368.928L297.589 362.424H298.801L300.865 367.752L302.905 362.424H304.033Z" fill="#4E4033" fill-opacity="0.5"/>
<path d="M342.136 360.636V366.816C342.136 367.504 341.924 368.056 341.5 368.472C341.076 368.88 340.516 369.084 339.82 369.084C339.116 369.084 338.552 368.876 338.128 368.46C337.704 368.036 337.492 367.46 337.492 366.732H338.584C338.592 367.14 338.696 367.472 338.896 367.728C339.104 367.984 339.412 368.112 339.82 368.112C340.228 368.112 340.532 367.992 340.732 367.752C340.932 367.504 341.032 367.192 341.032 366.816V360.636H342.136ZM350.119 362.424V369H349.027V368.028C348.819 368.364 348.527 368.628 348.151 368.82C347.783 369.004 347.375 369.096 346.927 369.096C346.415 369.096 345.955 368.992 345.547 368.784C345.139 368.568 344.815 368.248 344.575 367.824C344.343 367.4 344.227 366.884 344.227 366.276V362.424H345.307V366.132C345.307 366.78 345.471 367.28 345.799 367.632C346.127 367.976 346.575 368.148 347.143 368.148C347.727 368.148 348.187 367.968 348.523 367.608C348.859 367.248 349.027 366.724 349.027 366.036V362.424H350.119ZM355.167 362.304C355.967 362.304 356.615 362.548 357.111 363.036C357.607 363.516 357.855 364.212 357.855 365.124V369H356.775V365.28C356.775 364.624 356.611 364.124 356.283 363.78C355.955 363.428 355.507 363.252 354.939 363.252C354.363 363.252 353.903 363.432 353.559 363.792C353.223 364.152 353.055 364.676 353.055 365.364V369H351.963V362.424H353.055V363.36C353.271 363.024 353.563 362.764 353.931 362.58C354.307 362.396 354.719 362.304 355.167 362.304ZM365.639 365.46C365.639 365.668 365.627 365.888 365.603 366.12H360.347C360.387 366.768 360.607 367.276 361.007 367.644C361.415 368.004 361.907 368.184 362.483 368.184C362.955 368.184 363.347 368.076 363.659 367.86C363.979 367.636 364.203 367.34 364.331 366.972H365.507C365.331 367.604 364.979 368.12 364.451 368.52C363.923 368.912 363.267 369.108 362.483 369.108C361.859 369.108 361.299 368.968 360.803 368.688C360.315 368.408 359.931 368.012 359.651 367.5C359.371 366.98 359.231 366.38 359.231 365.7C359.231 365.02 359.367 364.424 359.639 363.912C359.911 363.4 360.291 363.008 360.779 362.736C361.275 362.456 361.843 362.316 362.483 362.316C363.107 362.316 363.659 362.452 364.139 362.724C364.619 362.996 364.987 363.372 365.243 363.852C365.507 364.324 365.639 364.86 365.639 365.46ZM364.511 365.232C364.511 364.816 364.419 364.46 364.235 364.164C364.051 363.86 363.799 363.632 363.479 363.48C363.167 363.32 362.819 363.24 362.435 363.24C361.883 363.24 361.411 363.416 361.019 363.768C360.635 364.12 360.415 364.608 360.359 365.232H364.511Z" fill="#4E4033" fill-opacity="0.5"/>
<path d="M404.136 360.636V366.816C404.136 367.504 403.924 368.056 403.5 368.472C403.076 368.88 402.516 369.084 401.82 369.084C401.116 369.084 400.552 368.876 400.128 368.46C399.704 368.036 399.492 367.46 399.492 366.732H400.584C400.592 367.14 400.696 367.472 400.896 367.728C401.104 367.984 401.412 368.112 401.82 368.112C402.228 368.112 402.532 367.992 402.732 367.752C402.932 367.504 403.032 367.192 403.032 366.816V360.636H404.136ZM412.119 362.424V369H411.027V368.028C410.819 368.364 410.527 368.628 410.151 368.82C409.783 369.004 409.375 369.096 408.927 369.096C408.415 369.096 407.955 368.992 407.547 368.784C407.139 368.568 406.815 368.248 406.575 367.824C406.343 367.4 406.227 366.884 406.227 366.276V362.424H407.307V366.132C407.307 366.78 407.471 367.28 407.799 367.632C408.127 367.976 408.575 368.148 409.143 368.148C409.727 368.148 410.187 367.968 410.523 367.608C410.859 367.248 411.027 366.724 411.027 366.036V362.424H412.119ZM415.055 360.12V369H413.963V360.12H415.055ZM422.58 362.424L418.62 372.096H417.492L418.788 368.928L416.136 362.424H417.348L419.412 367.752L421.452 362.424H422.58Z" fill="#4E4033" fill-opacity="0.5"/>
<path d="M460.868 367.14H457.22L456.548 369H455.396L458.42 360.684H459.68L462.692 369H461.54L460.868 367.14ZM460.556 366.252L459.044 362.028L457.532 366.252H460.556ZM469.842 362.424V369H468.75V368.028C468.542 368.364 468.25 368.628 467.874 368.82C467.506 369.004 467.098 369.096 466.65 369.096C466.138 369.096 465.678 368.992 465.27 368.784C464.862 368.568 464.538 368.248 464.298 367.824C464.066 367.4 463.95 366.884 463.95 366.276V362.424H465.03V366.132C465.03 366.78 465.194 367.28 465.522 367.632C465.85 367.976 466.298 368.148 466.866 368.148C467.45 368.148 467.91 367.968 468.246 367.608C468.582 367.248 468.75 366.724 468.75 366.036V362.424H469.842ZM474.398 362.316C474.966 362.316 475.462 362.44 475.886 362.688C476.318 362.936 476.638 363.248 476.846 363.624V362.424H477.95V369.144C477.95 369.744 477.822 370.276 477.566 370.74C477.31 371.212 476.942 371.58 476.462 371.844C475.99 372.108 475.438 372.24 474.806 372.24C473.942 372.24 473.222 372.036 472.646 371.628C472.07 371.22 471.73 370.664 471.626 369.96H472.706C472.826 370.36 473.074 370.68 473.45 370.92C473.826 371.168 474.278 371.292 474.806 371.292C475.406 371.292 475.894 371.104 476.27 370.728C476.654 370.352 476.846 369.824 476.846 369.144V367.764C476.63 368.148 476.31 368.468 475.886 368.724C475.462 368.98 474.966 369.108 474.398 369.108C473.814 369.108 473.282 368.964 472.802 368.676C472.33 368.388 471.958 367.984 471.686 367.464C471.414 366.944 471.278 366.352 471.278 365.688C471.278 365.016 471.414 364.428 471.686 363.924C471.958 363.412 472.33 363.016 472.802 362.736C473.282 362.456 473.814 362.316 474.398 362.316ZM476.846 365.7C476.846 365.204 476.746 364.772 476.546 364.404C476.346 364.036 476.074 363.756 475.73 363.564C475.394 363.364 475.022 363.264 474.614 363.264C474.206 363.264 473.834 363.36 473.498 363.552C473.162 363.744 472.894 364.024 472.694 364.392C472.494 364.76 472.394 365.192 472.394 365.688C472.394 366.192 472.494 366.632 472.694 367.008C472.894 367.376 473.162 367.66 473.498 367.86C473.834 368.052 474.206 368.148 474.614 368.148C475.022 368.148 475.394 368.052 475.73 367.86C476.074 367.66 476.346 367.376 476.546 367.008C476.746 366.632 476.846 366.196 476.846 365.7Z" fill="#4E4033" fill-opacity="0.5"/>
<path d="M514.576 369.084C514.024 369.084 513.528 368.988 513.088 368.796C512.656 368.596 512.316 368.324 512.068 367.98C511.82 367.628 511.692 367.224 511.684 366.768H512.848C512.888 367.16 513.048 367.492 513.328 367.764C513.616 368.028 514.032 368.16 514.576 368.16C515.096 368.16 515.504 368.032 515.8 367.776C516.104 367.512 516.256 367.176 516.256 366.768C516.256 366.448 516.168 366.188 515.992 365.988C515.816 365.788 515.596 365.636 515.332 365.532C515.068 365.428 514.712 365.316 514.264 365.196C513.712 365.052 513.268 364.908 512.932 364.764C512.604 364.62 512.32 364.396 512.08 364.092C511.848 363.78 511.732 363.364 511.732 362.844C511.732 362.388 511.848 361.984 512.08 361.632C512.312 361.28 512.636 361.008 513.052 360.816C513.476 360.624 513.96 360.528 514.504 360.528C515.288 360.528 515.928 360.724 516.424 361.116C516.928 361.508 517.212 362.028 517.276 362.676H516.076C516.036 362.356 515.868 362.076 515.572 361.836C515.276 361.588 514.884 361.464 514.396 361.464C513.94 361.464 513.568 361.584 513.28 361.824C512.992 362.056 512.848 362.384 512.848 362.808C512.848 363.112 512.932 363.36 513.1 363.552C513.276 363.744 513.488 363.892 513.736 363.996C513.992 364.092 514.348 364.204 514.804 364.332C515.356 364.484 515.8 364.636 516.136 364.788C516.472 364.932 516.76 365.16 517 365.472C517.24 365.776 517.36 366.192 517.36 366.72C517.36 367.128 517.252 367.512 517.036 367.872C516.82 368.232 516.5 368.524 516.076 368.748C515.652 368.972 515.152 369.084 514.576 369.084ZM524.967 365.46C524.967 365.668 524.955 365.888 524.931 366.12H519.675C519.715 366.768 519.935 367.276 520.335 367.644C520.743 368.004 521.235 368.184 521.811 368.184C522.283 368.184 522.675 368.076 522.987 367.86C523.307 367.636 523.531 367.34 523.659 366.972H524.835C524.659 367.604 524.307 368.12 523.779 368.52C523.251 368.912 522.595 369.108 521.811 369.108C521.187 369.108 520.627 368.968 520.131 368.688C519.643 368.408 519.259 368.012 518.979 367.5C518.699 366.98 518.559 366.38 518.559 365.7C518.559 365.02 518.695 364.424 518.967 363.912C519.239 363.4 519.619 363.008 520.107 362.736C520.603 362.456 521.171 362.316 521.811 362.316C522.435 362.316 522.987 362.452 523.467 362.724C523.947 362.996 524.315 363.372 524.571 363.852C524.835 364.324 524.967 364.86 524.967 365.46ZM523.839 365.232C523.839 364.816 523.747 364.46 523.563 364.164C523.379 363.86 523.127 363.632 522.807 363.48C522.495 363.32 522.147 363.24 521.763 363.24C521.211 363.24 520.739 363.416 520.347 363.768C519.963 364.12 519.743 364.608 519.687 365.232H523.839ZM527.5 363.636C527.716 363.26 528.036 362.948 528.46 362.7C528.892 362.444 529.392 362.316 529.96 362.316C530.544 362.316 531.072 362.456 531.544 362.736C532.024 363.016 532.4 363.412 532.672 363.924C532.944 364.428 533.08 365.016 533.08 365.688C533.08 366.352 532.944 366.944 532.672 367.464C532.4 367.984 532.024 368.388 531.544 368.676C531.072 368.964 530.544 369.108 529.96 369.108C529.4 369.108 528.904 368.984 528.472 368.736C528.048 368.48 527.724 368.164 527.5 367.788V372.12H526.408V362.424H527.5V363.636ZM531.964 365.688C531.964 365.192 531.864 364.76 531.664 364.392C531.464 364.024 531.192 363.744 530.848 363.552C530.512 363.36 530.14 363.264 529.732 363.264C529.332 363.264 528.96 363.364 528.616 363.564C528.28 363.756 528.008 364.04 527.8 364.416C527.6 364.784 527.5 365.212 527.5 365.7C527.5 366.196 527.6 366.632 527.8 367.008C528.008 367.376 528.28 367.66 528.616 367.86C528.96 368.052 529.332 368.148 529.732 368.148C530.14 368.148 530.512 368.052 530.848 367.86C531.192 367.66 531.464 367.376 531.664 367.008C531.864 366.632 531.964 366.192 531.964 365.688ZM535.85 363.324V367.2C535.85 367.52 535.918 367.748 536.054 367.884C536.19 368.012 536.426 368.076 536.762 368.076H537.566V369H536.582C535.974 369 535.518 368.86 535.214 368.58C534.91 368.3 534.758 367.84 534.758 367.2V363.324H533.906V362.424H534.758V360.768H535.85V362.424H537.566V363.324H535.85Z" fill="#4E4033" fill-opacity="0.5"/>
<path d="M574.716 369.084C573.94 369.084 573.232 368.904 572.592 368.544C571.952 368.176 571.444 367.668 571.068 367.02C570.7 366.364 570.516 365.628 570.516 364.812C570.516 363.996 570.7 363.264 571.068 362.616C571.444 361.96 571.952 361.452 572.592 361.092C573.232 360.724 573.94 360.54 574.716 360.54C575.5 360.54 576.212 360.724 576.852 361.092C577.492 361.452 577.996 361.956 578.364 362.604C578.732 363.252 578.916 363.988 578.916 364.812C578.916 365.636 578.732 366.372 578.364 367.02C577.996 367.668 577.492 368.176 576.852 368.544C576.212 368.904 575.5 369.084 574.716 369.084ZM574.716 368.136C575.3 368.136 575.824 368 576.288 367.728C576.76 367.456 577.128 367.068 577.392 366.564C577.664 366.06 577.8 365.476 577.8 364.812C577.8 364.14 577.664 363.556 577.392 363.06C577.128 362.556 576.764 362.168 576.3 361.896C575.836 361.624 575.308 361.488 574.716 361.488C574.124 361.488 573.596 361.624 573.132 361.896C572.668 362.168 572.3 362.556 572.028 363.06C571.764 363.556 571.632 364.14 571.632 364.812C571.632 365.476 571.764 366.06 572.028 366.564C572.3 367.068 572.668 367.456 573.132 367.728C573.604 368 574.132 368.136 574.716 368.136ZM579.95 365.7C579.95 365.02 580.086 364.428 580.358 363.924C580.63 363.412 581.006 363.016 581.486 362.736C581.974 362.456 582.53 362.316 583.154 362.316C583.962 362.316 584.626 362.512 585.146 362.904C585.674 363.296 586.022 363.84 586.19 364.536H585.014C584.902 364.136 584.682 363.82 584.354 363.588C584.034 363.356 583.634 363.24 583.154 363.24C582.53 363.24 582.026 363.456 581.642 363.888C581.258 364.312 581.066 364.916 581.066 365.7C581.066 366.492 581.258 367.104 581.642 367.536C582.026 367.968 582.53 368.184 583.154 368.184C583.634 368.184 584.034 368.072 584.354 367.848C584.674 367.624 584.894 367.304 585.014 366.888H586.19C586.014 367.56 585.662 368.1 585.134 368.508C584.606 368.908 583.946 369.108 583.154 369.108C582.53 369.108 581.974 368.968 581.486 368.688C581.006 368.408 580.63 368.012 580.358 367.5C580.086 366.988 579.95 366.388 579.95 365.7ZM588.979 363.324V367.2C588.979 367.52 589.047 367.748 589.183 367.884C589.319 368.012 589.555 368.076 589.891 368.076H590.695V369H589.711C589.103 369 588.647 368.86 588.343 368.58C588.039 368.3 587.887 367.84 587.887 367.2V363.324H587.035V362.424H587.887V360.768H588.979V362.424H590.695V363.324H588.979Z" fill="#4E4033" fill-opacity="0.5"/>
<path d="M631.5 369H630.408L626.016 362.34V369H624.924V360.624H626.016L630.408 367.272V360.624H631.5V369ZM636.23 369.108C635.614 369.108 635.054 368.968 634.55 368.688C634.054 368.408 633.662 368.012 633.374 367.5C633.094 366.98 632.954 366.38 632.954 365.7C632.954 365.028 633.098 364.436 633.386 363.924C633.682 363.404 634.082 363.008 634.586 362.736C635.09 362.456 635.654 362.316 636.278 362.316C636.902 362.316 637.466 362.456 637.97 362.736C638.474 363.008 638.87 363.4 639.158 363.912C639.454 364.424 639.602 365.02 639.602 365.7C639.602 366.38 639.45 366.98 639.146 367.5C638.85 368.012 638.446 368.408 637.934 368.688C637.422 368.968 636.854 369.108 636.23 369.108ZM636.23 368.148C636.622 368.148 636.99 368.056 637.334 367.872C637.678 367.688 637.954 367.412 638.162 367.044C638.378 366.676 638.486 366.228 638.486 365.7C638.486 365.172 638.382 364.724 638.174 364.356C637.966 363.988 637.694 363.716 637.358 363.54C637.022 363.356 636.658 363.264 636.266 363.264C635.866 363.264 635.498 363.356 635.162 363.54C634.834 363.716 634.57 363.988 634.37 364.356C634.17 364.724 634.07 365.172 634.07 365.7C634.07 366.236 634.166 366.688 634.358 367.056C634.558 367.424 634.822 367.7 635.15 367.884C635.478 368.06 635.838 368.148 636.23 368.148ZM643.485 367.992L645.525 362.424H646.689L644.109 369H642.837L640.257 362.424H641.433L643.485 367.992Z" fill="#4E4033" fill-opacity="0.5"/>
<path d="M682.528 360.636C683.44 360.636 684.228 360.808 684.892 361.152C685.564 361.488 686.076 361.972 686.428 362.604C686.788 363.236 686.968 363.98 686.968 364.836C686.968 365.692 686.788 366.436 686.428 367.068C686.076 367.692 685.564 368.172 684.892 368.508C684.228 368.836 683.44 369 682.528 369H679.924V360.636H682.528ZM682.528 368.1C683.608 368.1 684.432 367.816 685 367.248C685.568 366.672 685.852 365.868 685.852 364.836C685.852 363.796 685.564 362.984 684.988 362.4C684.42 361.816 683.6 361.524 682.528 361.524H681.016V368.1H682.528ZM694.408 365.46C694.408 365.668 694.396 365.888 694.372 366.12H689.116C689.156 366.768 689.376 367.276 689.776 367.644C690.184 368.004 690.676 368.184 691.252 368.184C691.724 368.184 692.116 368.076 692.428 367.86C692.748 367.636 692.972 367.34 693.1 366.972H694.276C694.1 367.604 693.748 368.12 693.22 368.52C692.692 368.912 692.036 369.108 691.252 369.108C690.628 369.108 690.068 368.968 689.572 368.688C689.084 368.408 688.7 368.012 688.42 367.5C688.14 366.98 688 366.38 688 365.7C688 365.02 688.136 364.424 688.408 363.912C688.68 363.4 689.06 363.008 689.548 362.736C690.044 362.456 690.612 362.316 691.252 362.316C691.876 362.316 692.428 362.452 692.908 362.724C693.388 362.996 693.756 363.372 694.012 363.852C694.276 364.324 694.408 364.86 694.408 365.46ZM693.28 365.232C693.28 364.816 693.188 364.46 693.004 364.164C692.82 363.86 692.568 363.632 692.248 363.48C691.936 363.32 691.588 363.24 691.204 363.24C690.652 363.24 690.18 363.416 689.788 363.768C689.404 364.12 689.184 364.608 689.128 365.232H693.28ZM695.442 365.7C695.442 365.02 695.578 364.428 695.85 363.924C696.122 363.412 696.498 363.016 696.978 362.736C697.466 362.456 698.022 362.316 698.646 362.316C699.454 362.316 700.118 362.512 700.638 362.904C701.166 363.296 701.514 363.84 701.682 364.536H700.506C700.394 364.136 700.174 363.82 699.846 363.588C699.526 363.356 699.126 363.24 698.646 363.24C698.022 363.24 697.518 363.456 697.134 363.888C696.75 364.312 696.558 364.916 696.558 365.7C696.558 366.492 696.75 367.104 697.134 367.536C697.518 367.968 698.022 368.184 698.646 368.184C699.126 368.184 699.526 368.072 699.846 367.848C700.166 367.624 700.386 367.304 700.506 366.888H701.682C701.506 367.56 701.154 368.1 700.626 368.508C700.098 368.908 699.438 369.108 698.646 369.108C698.022 369.108 697.466 368.968 696.978 368.688C696.498 368.408 696.122 368.012 695.85 367.5C695.578 366.988 695.442 366.388 695.442 365.7Z" fill="#4E4033" fill-opacity="0.5"/>
<path d="M64 205.5L71.5762 213.274C79.1968 220.758 94.5708 236.742 109.635 248.149C124.743 259.992 139.762 267.258 155.269 252C170.333 236.742 185.397 197.508 200.904 197.726C215.924 197.508 231.032 236.742 246.096 248.149C261.47 259.992 276.667 244.008 291.731 252C307.06 259.992 322.301 290.508 337.365 279.101C352.606 267.258 367.936 213.492 383 217.125C398.197 220.758 413.571 249.114 428.635 279.847C443.743 310.872 458.762 310.872 474.269 291.472C491.439 272.904 499.822 265.64 518.285 255.413C537.762 246.028 550.032 259.992 565.096 244.226C580.47 228.75 595.667 182.25 610.73 174.476C626.06 166.992 641.301 197.508 656.365 201.649C671.606 205.5 686.936 182.25 694.468 170.625L702 159V345H694.424C686.803 345 671.429 345 656.365 345C641.257 345 626.237 345 610.73 345C595.667 345 580.603 345 565.096 345C550.076 345 534.968 345 519.904 345C504.53 345 489.333 345 474.269 345C458.94 345 443.699 345 428.635 345C413.394 345 398.064 345 383 345C367.803 345 352.429 345 337.365 345C322.257 345 307.237 345 291.731 345C276.667 345 261.603 345 246.096 345C231.076 345 215.968 345 200.904 345C185.53 345 170.333 345 155.269 345C139.94 345 124.699 345 109.635 345C94.3936 345 79.0639 345 71.5319 345H64V205.5Z" fill="url(#paint0_linear_1946_848)"/>
<g filter="url(#filter0_d_1946_848)">
<ellipse cx="200.853" cy="200" rx="8.23687" ry="7" fill="white"/>
<path d="M207.59 200C207.59 202.818 204.812 205.5 200.853 205.5C196.894 205.5 194.116 202.818 194.116 200C194.116 197.182 196.894 194.5 200.853 194.5C204.812 194.5 207.59 197.182 207.59 200Z" stroke="#FFA500" stroke-width="3"/>
</g>
<g filter="url(#filter1_d_1946_848)">
<path d="M299.695 254C299.695 257.866 296.008 261 291.459 261C286.909 261 283.222 257.866 283.222 254C283.222 250.134 286.909 247 291.459 247C296.008 247 299.695 250.134 299.695 254Z" fill="white"/>
<path d="M298.195 254C298.195 256.818 295.417 259.5 291.459 259.5C287.5 259.5 284.722 256.818 284.722 254C284.722 251.182 287.5 248.5 291.459 248.5C295.417 248.5 298.195 251.182 298.195 254Z" stroke="#FFA500" stroke-width="3"/>
</g>
<g filter="url(#filter2_d_1946_848)">
<ellipse cx="387.086" cy="220" rx="8.23687" ry="7" fill="white"/>
<path d="M393.823 220C393.823 222.818 391.045 225.5 387.086 225.5C383.127 225.5 380.349 222.818 380.349 220C380.349 217.182 383.127 214.5 387.086 214.5C391.045 214.5 393.823 217.182 393.823 220Z" stroke="#FFA500" stroke-width="3"/>
</g>
<g filter="url(#filter3_d_1946_848)">
<ellipse cx="546.237" cy="254" rx="8.23687" ry="7" fill="white"/>
<path d="M552.974 254C552.974 256.818 550.196 259.5 546.237 259.5C542.278 259.5 539.5 256.818 539.5 254C539.5 251.182 542.278 248.5 546.237 248.5C550.196 248.5 552.974 251.182 552.974 254Z" stroke="#FFA500" stroke-width="3"/>
</g>
<g filter="url(#filter4_d_1946_848)">
<ellipse cx="618.237" cy="175" rx="8.23687" ry="7" fill="white"/>
<path d="M624.974 175C624.974 177.818 622.196 180.5 618.237 180.5C614.278 180.5 611.5 177.818 611.5 175C611.5 172.182 614.278 169.5 618.237 169.5C622.196 169.5 624.974 172.182 624.974 175Z" stroke="#FFA500" stroke-width="3"/>
</g>
<path d="M33.066 45L30.294 40.104H29.106V45H26.586V32.436H31.302C32.274 32.436 33.102 32.61 33.786 32.958C34.47 33.294 34.98 33.756 35.316 34.344C35.664 34.92 35.838 35.568 35.838 36.288C35.838 37.116 35.598 37.866 35.118 38.538C34.638 39.198 33.924 39.654 32.976 39.906L35.982 45H33.066ZM29.106 38.214H31.212C31.896 38.214 32.406 38.052 32.742 37.728C33.078 37.392 33.246 36.93 33.246 36.342C33.246 35.766 33.078 35.322 32.742 35.01C32.406 34.686 31.896 34.524 31.212 34.524H29.106V38.214ZM47.3872 39.798C47.3872 40.158 47.3632 40.482 47.3152 40.77H40.0252C40.0852 41.49 40.3372 42.054 40.7812 42.462C41.2252 42.87 41.7712 43.074 42.4192 43.074C43.3552 43.074 44.0212 42.672 44.4172 41.868H47.1352C46.8472 42.828 46.2952 43.62 45.4792 44.244C44.6632 44.856 43.6612 45.162 42.4732 45.162C41.5132 45.162 40.6492 44.952 39.8812 44.532C39.1252 44.1 38.5312 43.494 38.0992 42.714C37.6792 41.934 37.4692 41.034 37.4692 40.014C37.4692 38.982 37.6792 38.076 38.0992 37.296C38.5192 36.516 39.1072 35.916 39.8632 35.496C40.6192 35.076 41.4892 34.866 42.4732 34.866C43.4212 34.866 44.2672 35.07 45.0112 35.478C45.7672 35.886 46.3492 36.468 46.7572 37.224C47.1772 37.968 47.3872 38.826 47.3872 39.798ZM44.7772 39.078C44.7652 38.43 44.5312 37.914 44.0752 37.53C43.6192 37.134 43.0612 36.936 42.4012 36.936C41.7772 36.936 41.2492 37.128 40.8172 37.512C40.3972 37.884 40.1392 38.406 40.0432 39.078H44.7772ZM51.7466 36.468C52.0706 36.012 52.5146 35.634 53.0786 35.334C53.6546 35.022 54.3086 34.866 55.0406 34.866C55.8926 34.866 56.6606 35.076 57.3446 35.496C58.0406 35.916 58.5866 36.516 58.9826 37.296C59.3906 38.064 59.5946 38.958 59.5946 39.978C59.5946 40.998 59.3906 41.904 58.9826 42.696C58.5866 43.476 58.0406 44.082 57.3446 44.514C56.6606 44.946 55.8926 45.162 55.0406 45.162C54.3086 45.162 53.6606 45.012 53.0966 44.712C52.5446 44.412 52.0946 44.034 51.7466 43.578V49.752H49.2266V35.028H51.7466V36.468ZM57.0206 39.978C57.0206 39.378 56.8946 38.862 56.6426 38.43C56.4026 37.986 56.0786 37.65 55.6706 37.422C55.2746 37.194 54.8426 37.08 54.3746 37.08C53.9186 37.08 53.4866 37.2 53.0786 37.44C52.6826 37.668 52.3586 38.004 52.1066 38.448C51.8666 38.892 51.7466 39.414 51.7466 40.014C51.7466 40.614 51.8666 41.136 52.1066 41.58C52.3586 42.024 52.6826 42.366 53.0786 42.606C53.4866 42.834 53.9186 42.948 54.3746 42.948C54.8426 42.948 55.2746 42.828 55.6706 42.588C56.0786 42.348 56.4026 42.006 56.6426 41.562C56.8946 41.118 57.0206 40.59 57.0206 39.978ZM65.8538 45.162C64.8938 45.162 64.0298 44.952 63.2618 44.532C62.4938 44.1 61.8878 43.494 61.4438 42.714C61.0118 41.934 60.7958 41.034 60.7958 40.014C60.7958 38.994 61.0178 38.094 61.4618 37.314C61.9178 36.534 62.5358 35.934 63.3158 35.514C64.0958 35.082 64.9658 34.866 65.9258 34.866C66.8858 34.866 67.7558 35.082 68.5358 35.514C69.3158 35.934 69.9278 36.534 70.3718 37.314C70.8278 38.094 71.0558 38.994 71.0558 40.014C71.0558 41.034 70.8218 41.934 70.3538 42.714C69.8978 43.494 69.2738 44.1 68.4818 44.532C67.7018 44.952 66.8258 45.162 65.8538 45.162ZM65.8538 42.966C66.3098 42.966 66.7358 42.858 67.1318 42.642C67.5398 42.414 67.8638 42.078 68.1038 41.634C68.3438 41.19 68.4638 40.65 68.4638 40.014C68.4638 39.066 68.2118 38.34 67.7078 37.836C67.2158 37.32 66.6098 37.062 65.8898 37.062C65.1698 37.062 64.5638 37.32 64.0718 37.836C63.5918 38.34 63.3518 39.066 63.3518 40.014C63.3518 40.962 63.5858 41.694 64.0538 42.21C64.5338 42.714 65.1338 42.966 65.8538 42.966ZM75.4244 36.576C75.7484 36.048 76.1684 35.634 76.6844 35.334C77.2124 35.034 77.8124 34.884 78.4844 34.884V37.53H77.8184C77.0264 37.53 76.4264 37.716 76.0184 38.088C75.6224 38.46 75.4244 39.108 75.4244 40.032V45H72.9044V35.028H75.4244V36.576ZM83.1157 37.098V41.922C83.1157 42.258 83.1937 42.504 83.3497 42.66C83.5177 42.804 83.7937 42.876 84.1777 42.876H85.3477V45H83.7637C81.6397 45 80.5777 43.968 80.5777 41.904V37.098H79.3897V35.028H80.5777V32.562H83.1157V35.028H85.3477V37.098H83.1157ZM90.9762 45.162C90.1602 45.162 89.4282 45.018 88.7802 44.73C88.1322 44.43 87.6162 44.028 87.2322 43.524C86.8602 43.02 86.6562 42.462 86.6202 41.85H89.1582C89.2062 42.234 89.3922 42.552 89.7162 42.804C90.0522 43.056 90.4662 43.182 90.9582 43.182C91.4382 43.182 91.8102 43.086 92.0742 42.894C92.3502 42.702 92.4882 42.456 92.4882 42.156C92.4882 41.832 92.3202 41.592 91.9842 41.436C91.6602 41.268 91.1382 41.088 90.4182 40.896C89.6742 40.716 89.0622 40.53 88.5822 40.338C88.1142 40.146 87.7062 39.852 87.3582 39.456C87.0222 39.06 86.8542 38.526 86.8542 37.854C86.8542 37.302 87.0102 36.798 87.3222 36.342C87.6462 35.886 88.1022 35.526 88.6902 35.262C89.2902 34.998 89.9922 34.866 90.7962 34.866C91.9842 34.866 92.9322 35.166 93.6402 35.766C94.3482 36.354 94.7382 37.152 94.8102 38.16H92.3982C92.3622 37.764 92.1942 37.452 91.8942 37.224C91.6062 36.984 91.2162 36.864 90.7242 36.864C90.2682 36.864 89.9142 36.948 89.6622 37.116C89.4222 37.284 89.3022 37.518 89.3022 37.818C89.3022 38.154 89.4702 38.412 89.8062 38.592C90.1422 38.76 90.6642 38.934 91.3722 39.114C92.0922 39.294 92.6862 39.48 93.1542 39.672C93.6222 39.864 94.0242 40.164 94.3602 40.572C94.7082 40.968 94.8882 41.496 94.9002 42.156C94.9002 42.732 94.7382 43.248 94.4142 43.704C94.1022 44.16 93.6462 44.52 93.0462 44.784C92.4582 45.036 91.7682 45.162 90.9762 45.162Z" fill="#4E4033"/>
<g filter="url(#filter5_d_1946_848)">
<path fill-rule="evenodd" clip-rule="evenodd" d="M355.695 144C350.172 144 345.695 148.477 345.695 154V190C345.695 195.523 350.172 200 355.695 200H385.033C385.034 200.002 385.035 200.003 385.036 200.005L389.438 207.525C389.824 208.185 390.778 208.185 391.164 207.525L395.565 200.005C395.566 200.003 395.567 200.002 395.568 200H425.921C431.444 200 435.921 195.523 435.921 190V154C435.921 148.477 431.444 144 425.921 144H355.695Z" fill="#B8B8B8"/>
</g>
<path d="M380.086 162.721C380.086 163.229 379.959 163.662 379.705 164.021C379.455 164.377 379.104 164.648 378.65 164.836C378.197 165.023 377.664 165.117 377.051 165.117C376.727 165.117 376.42 165.102 376.131 165.07C375.842 165.039 375.576 164.994 375.334 164.936C375.092 164.877 374.879 164.805 374.695 164.719V163.764C374.988 163.885 375.346 163.998 375.768 164.104C376.189 164.205 376.631 164.256 377.092 164.256C377.521 164.256 377.885 164.199 378.182 164.086C378.479 163.969 378.703 163.803 378.855 163.588C379.012 163.369 379.09 163.107 379.09 162.803C379.09 162.51 379.025 162.266 378.896 162.07C378.768 161.871 378.553 161.691 378.252 161.531C377.955 161.367 377.549 161.193 377.033 161.01C376.67 160.881 376.35 160.74 376.072 160.588C375.795 160.432 375.562 160.256 375.375 160.061C375.188 159.865 375.045 159.639 374.947 159.381C374.854 159.123 374.807 158.828 374.807 158.496C374.807 158.039 374.922 157.648 375.152 157.324C375.387 156.996 375.709 156.746 376.119 156.574C376.533 156.398 377.008 156.311 377.543 156.311C378 156.311 378.422 156.354 378.809 156.439C379.199 156.525 379.557 156.641 379.881 156.785L379.57 157.641C379.262 157.512 378.934 157.404 378.586 157.318C378.242 157.232 377.887 157.189 377.52 157.189C377.152 157.189 376.842 157.244 376.588 157.354C376.338 157.459 376.146 157.609 376.014 157.805C375.881 158 375.814 158.232 375.814 158.502C375.814 158.803 375.877 159.053 376.002 159.252C376.131 159.451 376.334 159.629 376.611 159.785C376.893 159.938 377.264 160.098 377.725 160.266C378.229 160.449 378.656 160.645 379.008 160.852C379.359 161.055 379.627 161.305 379.811 161.602C379.994 161.895 380.086 162.268 380.086 162.721ZM384.094 158.473C384.859 158.473 385.428 158.645 385.799 158.988C386.17 159.332 386.355 159.881 386.355 160.635V165H385.646L385.459 164.051H385.412C385.232 164.285 385.045 164.482 384.85 164.643C384.654 164.799 384.428 164.918 384.17 165C383.916 165.078 383.604 165.117 383.232 165.117C382.842 165.117 382.494 165.049 382.189 164.912C381.889 164.775 381.65 164.568 381.475 164.291C381.303 164.014 381.217 163.662 381.217 163.236C381.217 162.596 381.471 162.104 381.979 161.76C382.486 161.416 383.26 161.229 384.299 161.197L385.406 161.15V160.758C385.406 160.203 385.287 159.814 385.049 159.592C384.811 159.369 384.475 159.258 384.041 159.258C383.705 159.258 383.385 159.307 383.08 159.404C382.775 159.502 382.486 159.617 382.213 159.75L381.914 159.012C382.203 158.863 382.535 158.736 382.91 158.631C383.285 158.525 383.68 158.473 384.094 158.473ZM385.395 161.836L384.416 161.877C383.615 161.908 383.051 162.039 382.723 162.27C382.395 162.5 382.23 162.826 382.23 163.248C382.23 163.615 382.342 163.887 382.564 164.062C382.787 164.238 383.082 164.326 383.449 164.326C384.02 164.326 384.486 164.168 384.85 163.852C385.213 163.535 385.395 163.061 385.395 162.428V161.836ZM389.338 165H388.359V155.883H389.338V165ZM393.867 158.461C394.414 158.461 394.883 158.582 395.273 158.824C395.664 159.066 395.963 159.406 396.17 159.844C396.377 160.277 396.48 160.785 396.48 161.367V161.971H392.045C392.057 162.725 392.244 163.299 392.607 163.693C392.971 164.088 393.482 164.285 394.143 164.285C394.549 164.285 394.908 164.248 395.221 164.174C395.533 164.1 395.857 163.99 396.193 163.846V164.701C395.869 164.846 395.547 164.951 395.227 165.018C394.91 165.084 394.535 165.117 394.102 165.117C393.484 165.117 392.945 164.992 392.484 164.742C392.027 164.488 391.672 164.117 391.418 163.629C391.164 163.141 391.037 162.543 391.037 161.836C391.037 161.145 391.152 160.547 391.383 160.043C391.617 159.535 391.945 159.145 392.367 158.871C392.793 158.598 393.293 158.461 393.867 158.461ZM393.855 159.258C393.336 159.258 392.922 159.428 392.613 159.768C392.305 160.107 392.121 160.582 392.062 161.191H395.461C395.457 160.809 395.396 160.473 395.279 160.184C395.166 159.891 394.992 159.664 394.758 159.504C394.523 159.34 394.223 159.258 393.855 159.258ZM402.287 163.242C402.287 163.652 402.184 163.998 401.977 164.279C401.773 164.557 401.48 164.766 401.098 164.906C400.719 165.047 400.266 165.117 399.738 165.117C399.289 165.117 398.9 165.082 398.572 165.012C398.244 164.941 397.957 164.842 397.711 164.713V163.816C397.973 163.945 398.285 164.062 398.648 164.168C399.012 164.273 399.383 164.326 399.762 164.326C400.316 164.326 400.719 164.236 400.969 164.057C401.219 163.877 401.344 163.633 401.344 163.324C401.344 163.148 401.293 162.994 401.191 162.861C401.094 162.725 400.928 162.594 400.693 162.469C400.459 162.34 400.135 162.199 399.721 162.047C399.311 161.891 398.955 161.736 398.654 161.584C398.357 161.428 398.127 161.238 397.963 161.016C397.803 160.793 397.723 160.504 397.723 160.148C397.723 159.605 397.941 159.189 398.379 158.9C398.82 158.607 399.398 158.461 400.113 158.461C400.5 158.461 400.861 158.5 401.197 158.578C401.537 158.652 401.854 158.754 402.146 158.883L401.818 159.662C401.553 159.549 401.27 159.453 400.969 159.375C400.668 159.297 400.361 159.258 400.049 159.258C399.6 159.258 399.254 159.332 399.012 159.48C398.773 159.629 398.654 159.832 398.654 160.09C398.654 160.289 398.709 160.453 398.818 160.582C398.932 160.711 399.111 160.832 399.357 160.945C399.604 161.059 399.928 161.191 400.33 161.344C400.732 161.492 401.08 161.646 401.373 161.807C401.666 161.963 401.891 162.154 402.047 162.381C402.207 162.604 402.287 162.891 402.287 163.242Z" fill="#FCFAF8"/>
<path d="M369.924 186V184.784C370.649 184.208 371.343 183.627 372.004 183.04C372.665 182.453 373.252 181.877 373.764 181.312C374.287 180.736 374.697 180.176 374.996 179.632C375.295 179.077 375.444 178.544 375.444 178.032C375.444 177.691 375.385 177.371 375.268 177.072C375.151 176.763 374.959 176.517 374.692 176.336C374.425 176.144 374.068 176.048 373.62 176.048C372.948 176.048 372.441 176.261 372.1 176.688C371.769 177.115 371.609 177.627 371.62 178.224H369.972C369.983 177.435 370.148 176.773 370.468 176.24C370.799 175.707 371.236 175.301 371.78 175.024C372.335 174.747 372.959 174.608 373.652 174.608C374.708 174.608 375.551 174.907 376.18 175.504C376.82 176.091 377.14 176.912 377.14 177.968C377.14 178.597 376.985 179.221 376.676 179.84C376.377 180.459 375.983 181.056 375.492 181.632C375.012 182.197 374.495 182.731 373.94 183.232C373.385 183.733 372.857 184.187 372.356 184.592H377.476V186H369.924ZM378.296 187.888L379.224 184.112H380.904L379.432 187.888H378.296ZM387.05 186.192C386.037 186.192 385.162 185.952 384.426 185.472C383.701 184.981 383.141 184.304 382.746 183.44C382.362 182.565 382.17 181.552 382.17 180.4C382.17 179.248 382.362 178.24 382.746 177.376C383.141 176.501 383.701 175.824 384.426 175.344C385.162 174.853 386.037 174.608 387.05 174.608C388.063 174.608 388.933 174.853 389.658 175.344C390.383 175.824 390.938 176.501 391.322 177.376C391.717 178.24 391.914 179.248 391.914 180.4C391.914 181.552 391.717 182.565 391.322 183.44C390.938 184.304 390.383 184.981 389.658 185.472C388.933 185.952 388.063 186.192 387.05 186.192ZM387.05 184.672C387.658 184.672 388.197 184.501 388.666 184.16C389.146 183.819 389.519 183.328 389.786 182.688C390.053 182.048 390.186 181.285 390.186 180.4C390.186 179.515 390.053 178.752 389.786 178.112C389.519 177.472 389.146 176.981 388.666 176.64C388.197 176.299 387.658 176.128 387.05 176.128C386.431 176.128 385.887 176.299 385.418 176.64C384.949 176.981 384.581 177.472 384.314 178.112C384.047 178.752 383.914 179.515 383.914 180.4C383.914 181.285 384.047 182.048 384.314 182.688C384.581 183.328 384.949 183.819 385.418 184.16C385.887 184.501 386.431 184.672 387.05 184.672ZM394.432 186L398.768 176.256H392.944V174.8H400.512V176.032L396.208 186H394.432ZM405.816 186.192C405.069 186.192 404.392 186.059 403.784 185.792C403.186 185.515 402.706 185.131 402.344 184.64C401.992 184.149 401.816 183.573 401.816 182.912C401.816 182.24 402.002 181.637 402.376 181.104C402.76 180.571 403.266 180.208 403.896 180.016C403.33 179.792 402.893 179.467 402.584 179.04C402.274 178.603 402.12 178.123 402.12 177.6C402.12 177.056 402.264 176.56 402.552 176.112C402.84 175.653 403.256 175.291 403.8 175.024C404.354 174.747 405.026 174.608 405.816 174.608C406.605 174.608 407.272 174.747 407.816 175.024C408.37 175.291 408.792 175.653 409.08 176.112C409.368 176.56 409.512 177.056 409.512 177.6C409.512 178.112 409.352 178.592 409.032 179.04C408.722 179.477 408.285 179.803 407.72 180.016C408.349 180.219 408.85 180.587 409.224 181.12C409.608 181.643 409.8 182.24 409.8 182.912C409.8 183.573 409.624 184.149 409.272 184.64C408.92 185.131 408.44 185.515 407.832 185.792C407.234 186.059 406.562 186.192 405.816 186.192ZM405.816 179.472C406.434 179.472 406.92 179.312 407.272 178.992C407.634 178.672 407.816 178.261 407.816 177.76C407.816 177.195 407.64 176.763 407.288 176.464C406.936 176.165 406.445 176.016 405.816 176.016C405.186 176.016 404.696 176.165 404.344 176.464C403.992 176.763 403.816 177.195 403.816 177.76C403.816 178.261 403.992 178.672 404.344 178.992C404.696 179.312 405.186 179.472 405.816 179.472ZM405.816 184.752C406.584 184.752 407.16 184.571 407.544 184.208C407.928 183.835 408.12 183.36 408.12 182.784C408.12 182.144 407.912 181.653 407.496 181.312C407.09 180.96 406.53 180.784 405.816 180.784C405.101 180.784 404.536 180.96 404.12 181.312C403.704 181.653 403.496 182.144 403.496 182.784C403.496 183.36 403.688 183.835 404.072 184.208C404.466 184.571 405.048 184.752 405.816 184.752Z" fill="#FCFAF8"/>
<path d="M386.753 344L386.753 227" stroke="#4E4033" stroke-dasharray="2 7"/>
<defs>
<filter id="filter0_d_1946_848" x="188.616" y="193" width="24.4736" height="22" filterUnits="userSpaceOnUse" color-interpolation-filters="sRGB">
<feFlood flood-opacity="0" result="BackgroundImageFix"/>
<feColorMatrix in="SourceAlpha" type="matrix" values="0 0 0 0 0 0 0 0 0 0 0 0 0 0 0 0 0 0 127 0" result="hardAlpha"/>
<feOffset dy="4"/>
<feGaussianBlur stdDeviation="2"/>
<feColorMatrix type="matrix" values="0 0 0 0 0.376471 0 0 0 0 0.356863 0 0 0 0 1 0 0 0 0.17 0"/>
<feBlend mode="normal" in2="BackgroundImageFix" result="effect1_dropShadow_1946_848"/>
<feBlend mode="normal" in="SourceGraphic" in2="effect1_dropShadow_1946_848" result="shape"/>
</filter>
<filter id="filter1_d_1946_848" x="279.222" y="247" width="24.4736" height="22" filterUnits="userSpaceOnUse" color-interpolation-filters="sRGB">
<feFlood flood-opacity="0" result="BackgroundImageFix"/>
<feColorMatrix in="SourceAlpha" type="matrix" values="0 0 0 0 0 0 0 0 0 0 0 0 0 0 0 0 0 0 127 0" result="hardAlpha"/>
<feOffset dy="4"/>
<feGaussianBlur stdDeviation="2"/>
<feColorMatrix type="matrix" values="0 0 0 0 0.376471 0 0 0 0 0.356863 0 0 0 0 1 0 0 0 0.17 0"/>
<feBlend mode="normal" in2="BackgroundImageFix" result="effect1_dropShadow_1946_848"/>
<feBlend mode="normal" in="SourceGraphic" in2="effect1_dropShadow_1946_848" result="shape"/>
</filter>
<filter id="filter2_d_1946_848" x="374.849" y="213" width="24.4736" height="22" filterUnits="userSpaceOnUse" color-interpolation-filters="sRGB">
<feFlood flood-opacity="0" result="BackgroundImageFix"/>
<feColorMatrix in="SourceAlpha" type="matrix" values="0 0 0 0 0 0 0 0 0 0 0 0 0 0 0 0 0 0 127 0" result="hardAlpha"/>
<feOffset dy="4"/>
<feGaussianBlur stdDeviation="2"/>
<feColorMatrix type="matrix" values="0 0 0 0 0.376471 0 0 0 0 0.356863 0 0 0 0 1 0 0 0 0.17 0"/>
<feBlend mode="normal" in2="BackgroundImageFix" result="effect1_dropShadow_1946_848"/>
<feBlend mode="normal" in="SourceGraphic" in2="effect1_dropShadow_1946_848" result="shape"/>
</filter>
<filter id="filter3_d_1946_848" x="534" y="247" width="24.4736" height="22" filterUnits="userSpaceOnUse" color-interpolation-filters="sRGB">
<feFlood flood-opacity="0" result="BackgroundImageFix"/>
<feColorMatrix in="SourceAlpha" type="matrix" values="0 0 0 0 0 0 0 0 0 0 0 0 0 0 0 0 0 0 127 0" result="hardAlpha"/>
<feOffset dy="4"/>
<feGaussianBlur stdDeviation="2"/>
<feColorMatrix type="matrix" values="0 0 0 0 0.376471 0 0 0 0 0.356863 0 0 0 0 1 0 0 0 0.17 0"/>
<feBlend mode="normal" in2="BackgroundImageFix" result="effect1_dropShadow_1946_848"/>
<feBlend mode="normal" in="SourceGraphic" in2="effect1_dropShadow_1946_848" result="shape"/>
</filter>
<filter id="filter4_d_1946_848" x="606" y="168" width="24.4736" height="22" filterUnits="userSpaceOnUse" color-interpolation-filters="sRGB">
<feFlood flood-opacity="0" result="BackgroundImageFix"/>
<feColorMatrix in="SourceAlpha" type="matrix" values="0 0 0 0 0 0 0 0 0 0 0 0 0 0 0 0 0 0 127 0" result="hardAlpha"/>
<feOffset dy="4"/>
<feGaussianBlur stdDeviation="2"/>
<feColorMatrix type="matrix" values="0 0 0 0 0.376471 0 0 0 0 0.356863 0 0 0 0 1 0 0 0 0.17 0"/>
<feBlend mode="normal" in2="BackgroundImageFix" result="effect1_dropShadow_1946_848"/>
<feBlend mode="normal" in="SourceGraphic" in2="effect1_dropShadow_1946_848" result="shape"/>
</filter>
<filter id="filter5_d_1946_848" x="338.695" y="141" width="104.225" height="78.0205" filterUnits="userSpaceOnUse" color-interpolation-filters="sRGB">
<feFlood flood-opacity="0" result="BackgroundImageFix"/>
<feColorMatrix in="SourceAlpha" type="matrix" values="0 0 0 0 0 0 0 0 0 0 0 0 0 0 0 0 0 0 127 0" result="hardAlpha"/>
<feOffset dy="4"/>
<feGaussianBlur stdDeviation="3.5"/>
<feColorMatrix type="matrix" values="0 0 0 0 0.0117647 0 0 0 0 0.00784314 0 0 0 0 0.160784 0 0 0 0.07 0"/>
<feBlend mode="normal" in2="BackgroundImageFix" result="effect1_dropShadow_1946_848"/>
<feBlend mode="normal" in="SourceGraphic" in2="effect1_dropShadow_1946_848" result="shape"/>
</filter>
<linearGradient id="paint0_linear_1946_848" x1="57.3113" y1="168" x2="702" y2="166.412" gradientUnits="userSpaceOnUse">
<stop stop-color="#A27738" stop-opacity="0.5"/>
<stop offset="0.932292" stop-color="#D4B483" stop-opacity="0.35"/>
</linearGradient>
</defs>
</svg>
