<svg width="25" height="24" viewBox="0 0 25 24" fill="none" xmlns="http://www.w3.org/2000/svg">
    <g clip-path="url(#clip0_1946_1103)">
    <path d="M23.7725 10.9995H1.77246C1.22018 10.9995 0.772461 11.4472 0.772461 11.9995C0.772461 12.5518 1.22018 12.9995 1.77246 12.9995H23.7725C24.3247 12.9995 24.7725 12.5518 24.7725 11.9995C24.7725 11.4472 24.3247 10.9995 23.7725 10.9995Z" fill="#B8B8B8"/>
    <path d="M23.7725 4.00049H1.77246C1.22018 4.00049 0.772461 4.4482 0.772461 5.00049C0.772461 5.55277 1.22018 6.00048 1.77246 6.00048H23.7725C24.3247 6.00048 24.7725 5.55277 24.7725 5.00049C24.7725 4.4482 24.3247 4.00049 23.7725 4.00049Z" fill="#B8B8B8"/>
    <path d="M23.7725 18H1.77246C1.22018 18 0.772461 18.4477 0.772461 19C0.772461 19.5523 1.22018 20 1.77246 20H23.7725C24.3247 20 24.7725 19.5523 24.7725 19C24.7725 18.4477 24.3247 18 23.7725 18Z" fill="#B8B8B8"/>
    </g>
    <defs>
    <clipPath id="clip0_1946_1103">
    <rect width="24" height="24" fill="white" transform="translate(0.772461)"/>
    </clipPath>
    </defs>
</svg>