<svg width="16" height="4" viewBox="0 0 16 4" fill="none" xmlns="http://www.w3.org/2000/svg">
<g opacity="0.3">
<path d="M14.7168 1.01257C13.9776 0.329152 12.7791 0.329152 12.0399 1.01257C11.3007 1.69598 11.3007 2.80402 12.0399 3.48744C12.7791 4.17085 13.9776 4.17085 14.7168 3.48744C15.456 2.80405 15.456 1.69601 14.7168 1.01257Z" fill="#312921"/>
<path d="M9.03885 1.01257C8.29964 0.329152 7.10114 0.329152 6.36193 1.01257C5.62272 1.69598 5.62272 2.80402 6.36193 3.48744C7.10114 4.17085 8.29964 4.17085 9.03885 3.48744C9.77806 2.80405 9.77806 1.69601 9.03885 1.01257Z" fill="#312921"/>
<path d="M3.36014 1.01257C2.62093 0.329152 1.42243 0.329152 0.683216 1.01257C-0.0559954 1.69598 -0.0559954 2.80402 0.683216 3.48744C1.42243 4.17085 2.62093 4.17085 3.36014 3.48744C4.09935 2.80405 4.09935 1.69601 3.36014 1.01257Z" fill="#312921"/>
</g>
</svg>
