<svg width="16" height="4" viewBox="0 0 16 4" fill="none" xmlns="http://www.w3.org/2000/svg">
<g opacity="0.3">
<path d="M14.7623 1.01257C14.0264 0.329152 12.8334 0.329152 12.0975 1.01257C11.3616 1.69598 11.3616 2.80402 12.0975 3.48744C12.8334 4.17085 14.0264 4.17085 14.7623 3.48744C15.4982 2.80405 15.4982 1.69601 14.7623 1.01257Z" fill="white"/>
<path d="M9.10924 1.01257C8.37337 0.329152 7.1803 0.329152 6.44443 1.01257C5.70857 1.69598 5.70857 2.80402 6.44443 3.48744C7.1803 4.17085 8.37337 4.17085 9.10924 3.48744C9.8451 2.80405 9.8451 1.69601 9.10924 1.01257Z" fill="white"/>
<path d="M3.4564 1.01257C2.72054 0.329152 1.52746 0.329152 0.791596 1.01257C0.055732 1.69598 0.055732 2.80402 0.791596 3.48744C1.52746 4.17085 2.72054 4.17085 3.4564 3.48744C4.19227 2.80405 4.19227 1.69601 3.4564 1.01257Z" fill="white"/>
</g>
</svg>
