<svg width="60" height="60" viewBox="0 0 60 60" fill="none" xmlns="http://www.w3.org/2000/svg">
<rect opacity="0.3" width="60" height="60" rx="30" fill="#D4B483"/>
<path d="M35.056 33.248C35.056 34.048 34.856 34.8 34.456 35.504C34.072 36.208 33.496 36.8 32.728 37.28C31.976 37.76 31.08 38.048 30.04 38.144V40.088H28.48V38.144C26.976 38 25.76 37.528 24.832 36.728C23.904 35.928 23.44 34.872 23.44 33.56H26.368C26.416 34.184 26.616 34.704 26.968 35.12C27.32 35.52 27.824 35.776 28.48 35.888V30.608C27.408 30.336 26.536 30.064 25.864 29.792C25.192 29.504 24.616 29.056 24.136 28.448C23.672 27.84 23.44 27.008 23.44 25.952C23.44 24.624 23.904 23.528 24.832 22.664C25.76 21.784 26.976 21.272 28.48 21.128V19.184H30.04V21.128C31.448 21.256 32.576 21.704 33.424 22.472C34.288 23.224 34.776 24.264 34.888 25.592H31.96C31.912 25.096 31.72 24.656 31.384 24.272C31.048 23.872 30.6 23.6 30.04 23.456V28.64C31.112 28.896 31.984 29.168 32.656 29.456C33.328 29.728 33.896 30.168 34.36 30.776C34.824 31.368 35.056 32.192 35.056 33.248ZM26.224 25.808C26.224 26.464 26.416 26.976 26.8 27.344C27.2 27.712 27.76 28.008 28.48 28.232V23.384C27.792 23.464 27.24 23.712 26.824 24.128C26.424 24.544 26.224 25.104 26.224 25.808ZM30.04 35.888C30.744 35.776 31.296 35.496 31.696 35.048C32.096 34.584 32.296 34.032 32.296 33.392C32.296 32.752 32.096 32.256 31.696 31.904C31.312 31.536 30.76 31.24 30.04 31.016V35.888Z" fill="#FFA500"/>
</svg>

