<svg width="12" height="22" viewBox="0 0 12 22" fill="none" xmlns="http://www.w3.org/2000/svg">
<path d="M11.95 14.248C11.95 15.048 11.75 15.8 11.35 16.504C10.966 17.208 10.39 17.8 9.62204 18.28C8.87004 18.76 7.97404 19.048 6.93404 19.144V21.088H5.37404V19.144C3.87004 19 2.65404 18.528 1.72604 17.728C0.798043 16.928 0.334043 15.872 0.334043 14.56H3.26204C3.31004 15.184 3.51004 15.704 3.86204 16.12C4.21404 16.52 4.71804 16.776 5.37404 16.888V11.608C4.30204 11.336 3.43004 11.064 2.75804 10.792C2.08604 10.504 1.51004 10.056 1.03004 9.448C0.566043 8.84 0.334043 8.008 0.334043 6.952C0.334043 5.624 0.798043 4.528 1.72604 3.664C2.65404 2.784 3.87004 2.272 5.37404 2.128V0.183999H6.93404V2.128C8.34204 2.256 9.47004 2.704 10.318 3.472C11.182 4.224 11.67 5.264 11.782 6.592H8.85404C8.80604 6.096 8.61404 5.656 8.27804 5.272C7.94204 4.872 7.49404 4.6 6.93404 4.456V9.64C8.00604 9.896 8.87804 10.168 9.55004 10.456C10.222 10.728 10.79 11.168 11.254 11.776C11.718 12.368 11.95 13.192 11.95 14.248ZM3.11804 6.808C3.11804 7.464 3.31004 7.976 3.69404 8.344C4.09404 8.712 4.65404 9.008 5.37404 9.232V4.384C4.68604 4.464 4.13404 4.712 3.71804 5.128C3.31804 5.544 3.11804 6.104 3.11804 6.808ZM6.93404 16.888C7.63804 16.776 8.19004 16.496 8.59004 16.048C8.99004 15.584 9.19004 15.032 9.19004 14.392C9.19004 13.752 8.99004 13.256 8.59004 12.904C8.20604 12.536 7.65404 12.24 6.93404 12.016V16.888Z" fill="#312921"/>
</svg>


