<svg width="24" height="24" viewBox="0 0 24 24" fill="none" xmlns="http://www.w3.org/2000/svg">
    <g clip-path="url(#clip0_1946_1106)">
    <path d="M20.5761 18.3594C19.9891 18.4531 19.3913 18.5 18.7826 18.5C16.8043 18.5 14.9728 18.0312 13.288 17.0937C11.6033 16.1562 10.2717 14.8802 9.29348 13.2656C8.31522 11.651 7.82609 9.89582 7.82609 7.99999C7.82609 5.99999 8.3913 4.14061 9.52174 2.42186C7.33696 3.04686 5.55163 4.23957 4.16576 5.99999C2.77989 7.76041 2.08696 9.76041 2.08696 12C2.08696 13.3542 2.36413 14.6484 2.91848 15.8828C3.47283 17.1172 4.21467 18.1797 5.14402 19.0703C6.07337 19.9609 7.18207 20.6719 8.47011 21.2031C9.75815 21.7344 11.1087 22 12.5217 22C14.087 22 15.5734 21.6797 16.981 21.0391C18.3886 20.3984 19.587 19.5052 20.5761 18.3594ZM23.8859 17.0312C22.8641 19.1458 21.3234 20.8359 19.2636 22.1016C17.2038 23.3672 14.9565 24 12.5217 24C10.8261 24 9.20652 23.6823 7.66304 23.0469C6.11957 22.4114 4.78804 21.5573 3.66848 20.4844C2.54891 19.4114 1.65761 18.1354 0.994565 16.6562C0.331522 15.1771 0 13.625 0 12C0 10.4062 0.3125 8.8828 0.9375 7.42968C1.5625 5.97655 2.41033 4.71874 3.48098 3.65624C4.55163 2.59374 5.83152 1.73697 7.32065 1.08593C8.80978 0.434884 10.3859 0.0781136 12.0489 0.0156136C12.5272 -0.00521969 12.8587 0.197905 13.0435 0.624989C13.2391 1.05207 13.1576 1.42707 12.7989 1.74999C11.8641 2.56249 11.1495 3.5078 10.6549 4.58593C10.1603 5.66405 9.91304 6.80207 9.91304 7.99999C9.91304 9.54166 10.3098 10.9635 11.1033 12.2656C11.8967 13.5677 12.9728 14.5989 14.3315 15.3594C15.6902 16.1198 17.1739 16.5 18.7826 16.5C20.0652 16.5 21.3043 16.2344 22.5 15.7031C22.9457 15.5156 23.337 15.5833 23.6739 15.9062C23.8261 16.0521 23.9212 16.2292 23.9592 16.4375C23.9973 16.6458 23.9728 16.8437 23.8859 17.0312Z" fill="#4E4033"/>
    </g>
    <defs>
    <clipPath id="clip0_1946_1106">
    <rect width="24" height="24" fill="white"/>
    </clipPath>
    </defs>
</svg>