<svg width="16" height="16" viewBox="0 0 16 16" fill="none" xmlns="http://www.w3.org/2000/svg">
<path d="M10.7328 2.56C11.0919 2.20103 11.5789 1.99942 12.0867 1.99951C12.5944 1.99961 13.0814 2.2014 13.4403 2.5605C13.7993 2.91961 14.0009 3.4066 14.0008 3.91436C14.0007 4.42211 13.7989 4.90903 13.4398 5.268L12.7068 6.002L9.99883 3.294L10.7328 2.561V2.56ZM9.29283 4.001L3.33683 9.955C3.15604 10.1359 3.01979 10.3564 2.93883 10.599L2.02483 13.342C1.99538 13.4301 1.99104 13.5246 2.0123 13.615C2.03356 13.7054 2.07958 13.7881 2.14519 13.8538C2.21081 13.9196 2.29343 13.9657 2.3838 13.9871C2.47416 14.0085 2.56871 14.0043 2.65683 13.975L5.39983 13.06C5.64283 12.98 5.86283 12.843 6.04383 12.662L11.9998 6.709L9.29183 4L9.29283 4.001Z" fill="#A27738"/>
</svg>
