<svg width="60" height="60" viewBox="0 0 60 60" fill="none" xmlns="http://www.w3.org/2000/svg">
<rect opacity="0.3" width="60" height="60" rx="30" fill="#4E4033" fill-opacity="0.5"/>
<g clip-path="url(#clip0_1946_1021)">
<path d="M37.3201 39.1425H22.6801C22.1963 39.1454 21.7173 39.0459 21.2747 38.8505C20.8321 38.6551 20.4358 38.3683 20.112 38.0088C19.7881 37.6494 19.5441 37.2254 19.3958 36.7649C19.2474 36.3044 19.1983 35.8176 19.2515 35.3368L20.4001 25.2396C20.4467 24.8184 20.6477 24.4293 20.9643 24.1476C21.2809 23.8658 21.6906 23.7113 22.1144 23.7139H37.8858C38.3096 23.7113 38.7193 23.8658 39.0359 24.1476C39.3525 24.4293 39.5535 24.8184 39.6001 25.2396L40.7144 35.3368C40.7673 35.8148 40.719 36.2986 40.5728 36.7567C40.4265 37.2149 40.1855 37.6371 39.8653 37.996C39.5452 38.355 39.1532 38.6425 38.7147 38.84C38.2762 39.0375 37.801 39.1406 37.3201 39.1425Z" stroke="#4E4033" stroke-linecap="round" stroke-linejoin="round"/>
<path d="M23.1431 23.7141C23.1431 21.8954 23.8655 20.1513 25.1515 18.8653C26.4374 17.5794 28.1816 16.8569 30.0002 16.8569C31.8188 16.8569 33.563 17.5794 34.8489 18.8653C36.1349 20.1513 36.8574 21.8954 36.8574 23.7141M25.7145 28.8569H34.2859" stroke="#4E4033" stroke-linecap="round" stroke-linejoin="round"/>
</g>
<defs>
<clipPath id="clip0_1946_1021">
<rect width="24" height="24" fill="white" transform="translate(18 16)"/>
</clipPath>
</defs>
</svg>

