<svg width="25" height="24" viewBox="0 0 25 24" fill="none" xmlns="http://www.w3.org/2000/svg">
<g clip-path="url(#clip0_2336_1205)">
<path d="M20.2141 23.1434H5.57414C5.09032 23.1464 4.61136 23.0469 4.16875 22.8515C3.72613 22.6561 3.32987 22.3693 3.00603 22.0098C2.68219 21.6503 2.4381 21.2264 2.28979 20.7659C2.14149 20.3053 2.09234 19.8186 2.14557 19.3377L3.29414 9.24059C3.34075 8.81936 3.54174 8.43032 3.85832 8.14856C4.1749 7.86681 4.58463 7.7123 5.00843 7.71488H20.7799C21.2037 7.7123 21.6134 7.86681 21.93 8.14856C22.2465 8.43032 22.4475 8.81936 22.4941 9.24059L23.6084 19.3377C23.6613 19.8157 23.6131 20.2995 23.4668 20.7577C23.3205 21.2158 23.0795 21.6381 22.7594 21.997C22.4393 22.3559 22.0472 22.6435 21.6087 22.841C21.1702 23.0385 20.6951 23.1416 20.2141 23.1434Z" stroke="#B8B8B8" stroke-linecap="round" stroke-linejoin="round"/>
<path d="M6.03711 7.71456C6.03711 5.89594 6.75956 4.1518 8.04552 2.86583C9.33148 1.57987 11.0756 0.857422 12.8943 0.857422C14.7129 0.857422 16.457 1.57987 17.743 2.86583C19.0289 4.1518 19.7514 5.89594 19.7514 7.71456M8.60854 12.8574H17.18" stroke="#B8B8B8" stroke-linecap="round" stroke-linejoin="round"/>
</g>
<defs>
<clipPath id="clip0_2336_1205">
<rect width="24" height="24" fill="white" transform="translate(0.894043)"/>
</clipPath>
</defs>
</svg>
