<svg width="25" height="24" viewBox="0 0 25 24" fill="none" xmlns="http://www.w3.org/2000/svg">
<g clip-path="url(#clip0_1946_1023)">
<path d="M20.2141 23.1425H5.57414C5.09032 23.1454 4.61136 23.0459 4.16875 22.8505C3.72613 22.6551 3.32987 22.3683 3.00603 22.0088C2.68219 21.6494 2.4381 21.2254 2.28979 20.7649C2.14149 20.3044 2.09234 19.8176 2.14557 19.3368L3.29414 9.23961C3.34075 8.81838 3.54174 8.42934 3.85832 8.14759C4.1749 7.86583 4.58463 7.71133 5.00843 7.7139H20.7799C21.2037 7.71133 21.6134 7.86583 21.93 8.14759C22.2465 8.42934 22.4475 8.81838 22.4941 9.23961L23.6084 19.3368C23.6613 19.8148 23.6131 20.2986 23.4668 20.7567C23.3205 21.2149 23.0795 21.6371 22.7594 21.996C22.4393 22.355 22.0472 22.6425 21.6087 22.84C21.1702 23.0375 20.6951 23.1406 20.2141 23.1425Z" stroke="#312921" stroke-linecap="round" stroke-linejoin="round"/>
<path d="M6.03711 7.71408C6.03711 5.89545 6.75956 4.15131 8.04552 2.86534C9.33148 1.57938 11.0756 0.856934 12.8943 0.856934C14.7129 0.856934 16.457 1.57938 17.743 2.86534C19.0289 4.15131 19.7514 5.89545 19.7514 7.71408M8.60854 12.8569H17.18" stroke="#312921" stroke-linecap="round" stroke-linejoin="round"/>
</g>
<defs>
<clipPath id="clip0_1946_1023">
<rect width="24" height="24" fill="white" transform="translate(0.894043)"/>
</clipPath>
</defs>
</svg>


