<svg width="24" height="24" viewBox="0 0 24 24" fill="none" xmlns="http://www.w3.org/2000/svg">
<path d="M13.559 9.30039C13.401 9.02678 13.1738 8.79957 12.9002 8.6416C12.6265 8.48363 12.3161 8.40047 12.0002 8.40047C11.6842 8.40047 11.3739 8.48363 11.1002 8.6416C10.8266 8.79957 10.5994 9.02678 10.4414 9.30039L9.89899 10.2388C9.85898 10.3071 9.83286 10.3826 9.82214 10.461C9.81142 10.5394 9.81631 10.6191 9.83654 10.6956C9.85676 10.7721 9.89192 10.8438 9.93998 10.9067C9.98805 10.9696 10.0481 11.0223 10.1166 11.0618C10.1851 11.1014 10.2608 11.127 10.3393 11.1372C10.4177 11.1474 10.4974 11.142 10.5738 11.1213C10.6502 11.1005 10.7217 11.0649 10.7842 11.0164C10.8468 10.9679 10.8991 10.9076 10.9382 10.8388L11.4806 9.90039C11.5333 9.80919 11.609 9.73345 11.7002 9.68079C11.7914 9.62814 11.8949 9.60042 12.0002 9.60042C12.1055 9.60042 12.209 9.62814 12.3002 9.68079C12.3914 9.73345 12.4671 9.80919 12.5198 9.90039L13.061 10.8388C13.1406 10.9768 13.2717 11.0775 13.4255 11.1188C13.5793 11.1601 13.7432 11.1386 13.8812 11.059C14.0192 10.9794 14.1199 10.8483 14.1612 10.6945C14.2025 10.5407 14.181 10.3768 14.1014 10.2388L13.559 9.30039ZM14.5982 13.5004L14.4686 13.2772C14.389 13.1392 14.3675 12.9753 14.4088 12.8215C14.4501 12.6677 14.5508 12.5366 14.6888 12.457C14.8268 12.3774 14.9907 12.3559 15.1445 12.3972C15.2983 12.4385 15.4294 12.5392 15.509 12.6772L15.6374 12.9004C15.7954 13.174 15.8785 13.4844 15.8786 13.8004C15.8786 14.1163 15.7954 14.4267 15.6374 14.7004C15.4794 14.974 15.2522 15.2012 14.9786 15.3592C14.705 15.5172 14.3946 15.6004 14.0786 15.6004H13.2002C13.0411 15.6004 12.8885 15.5372 12.7759 15.4247C12.6634 15.3121 12.6002 15.1595 12.6002 15.0004C12.6002 14.8413 12.6634 14.6886 12.7759 14.5761C12.8885 14.4636 13.0411 14.4004 13.2002 14.4004H14.0786C14.1839 14.4004 14.2874 14.3727 14.3786 14.32C14.4698 14.2673 14.5455 14.1916 14.5982 14.1004C14.6509 14.0092 14.6786 13.9057 14.6786 13.8004C14.6786 13.6951 14.6509 13.5916 14.5982 13.5004ZM10.8002 14.4004C10.9593 14.4004 11.1119 14.4636 11.2245 14.5761C11.337 14.6886 11.4002 14.8413 11.4002 15.0004C11.4002 15.1595 11.337 15.3121 11.2245 15.4247C11.1119 15.5372 10.9593 15.6004 10.8002 15.6004H9.92179C9.60573 15.6006 9.29519 15.5176 9.02139 15.3597C8.7476 15.2018 8.5202 14.9746 8.36208 14.7009C8.20396 14.4272 8.12069 14.1167 8.12064 13.8007C8.12059 13.4846 8.20376 13.1741 8.3618 12.9004L8.4914 12.6772C8.57153 12.5405 8.70247 12.4411 8.85564 12.4006C9.00882 12.3601 9.1718 12.3818 9.30901 12.461C9.44622 12.5402 9.54653 12.6705 9.58804 12.8234C9.62956 12.9763 9.60891 13.1395 9.5306 13.2772L9.4022 13.5004C9.34953 13.5916 9.32181 13.6951 9.32181 13.8004C9.32181 13.9057 9.34953 14.0092 9.40219 14.1004C9.45485 14.1916 9.53059 14.2673 9.6218 14.32C9.71301 14.3727 9.81647 14.4004 9.92179 14.4004H10.8002ZM19.097 3.10359C19.5471 3.55357 19.8001 4.16392 19.8002 4.80039V5.47239L18.2042 19.4764C18.1362 20.0639 17.8536 20.6057 17.4107 20.9977C16.9677 21.3897 16.3957 21.6043 15.8042 21.6004H8.2202C7.62873 21.6043 7.05665 21.3897 6.61371 20.9977C6.17078 20.6057 5.8882 20.0639 5.8202 19.4764L4.2002 5.47239V4.80039C4.2002 4.16387 4.45305 3.55342 4.90314 3.10333C5.35323 2.65325 5.96368 2.40039 6.6002 2.40039H17.4002C18.0367 2.40053 18.647 2.65347 19.097 3.10359ZM17.4002 3.60039H6.6002C6.28194 3.60039 5.97671 3.72682 5.75167 3.95186C5.52662 4.17691 5.4002 4.48213 5.4002 4.80039H18.6002C18.6002 4.48213 18.4738 4.17691 18.2487 3.95186C18.0237 3.72682 17.7185 3.60039 17.4002 3.60039ZM16.5962 20.0968C16.8182 19.8997 16.9593 19.6274 16.9922 19.3324L18.5282 6.00039H5.4722L7.0082 19.3324C7.04082 19.6273 7.18152 19.8996 7.40312 20.0968C7.62473 20.294 7.91154 20.4022 8.2082 20.4004H15.7922C16.0885 20.4019 16.3749 20.2938 16.5962 20.0968Z" fill="#312921"/>
</svg>
