<svg width="86" height="14" viewBox="0 0 86 14" fill="none" xmlns="http://www.w3.org/2000/svg">
<path d="M12.7829 8.26695C12.5834 8.4425 12.4917 8.69638 12.5372 8.94537L13.2219 12.3864C13.2796 12.6781 13.1441 12.9732 12.8753 13.1418C12.6119 13.3166 12.2615 13.3376 11.9742 13.1977L8.56313 11.5821C8.44452 11.5248 8.31282 11.494 8.17804 11.4905H7.96933C7.89693 11.5003 7.82608 11.5213 7.76139 11.5534L4.34956 13.1768C4.18089 13.2537 3.98989 13.281 3.80274 13.2537C3.3468 13.1754 3.04259 12.7809 3.11729 12.3648L3.80274 8.92369C3.84818 8.6726 3.75653 8.41732 3.55706 8.23897L0.775994 5.79106C0.543404 5.58614 0.462537 5.2784 0.568819 5.00073C0.672021 4.72377 0.935418 4.52164 1.2535 4.47618L5.08121 3.97191C5.37234 3.94464 5.62803 3.78377 5.75896 3.54598L7.44562 0.405654C7.48567 0.335714 7.53727 0.271369 7.59965 0.216815L7.66897 0.167857C7.70516 0.131488 7.74675 0.101414 7.79296 0.0769344L7.87691 0.0489582L8.00784 0H8.33208C8.62166 0.0272767 8.87658 0.184643 9.00982 0.419642L10.7188 3.54598C10.842 3.77468 11.0816 3.93344 11.3581 3.97191L15.1858 4.47618C15.5092 4.51815 15.7796 4.72097 15.8866 5.00073C15.9875 5.2812 15.9005 5.58893 15.6633 5.79106L12.7829 8.26695Z" fill="#FFC327"/>
<path d="M30.2423 8.26695C30.0429 8.4425 29.9512 8.69638 29.9966 8.94537L30.6813 12.3864C30.7391 12.6781 30.6035 12.9732 30.3348 13.1418C30.0714 13.3166 29.7209 13.3376 29.4337 13.1977L26.0226 11.5821C25.904 11.5248 25.7723 11.494 25.6375 11.4905H25.4288C25.3564 11.5003 25.2856 11.5213 25.2209 11.5534L21.809 13.1768C21.6404 13.2537 21.4494 13.281 21.2622 13.2537C20.8063 13.1754 20.5021 12.7809 20.5768 12.3648L21.2622 8.92369C21.3077 8.6726 21.216 8.41732 21.0165 8.23897L18.2355 5.79106C18.0029 5.58614 17.922 5.2784 18.0283 5.00073C18.1315 4.72377 18.3949 4.52164 18.713 4.47618L22.5407 3.97191C22.8318 3.94464 23.0875 3.78377 23.2184 3.54598L24.9051 0.405654C24.9451 0.335714 24.9967 0.271369 25.0591 0.216815L25.1284 0.167857C25.1646 0.131488 25.2062 0.101414 25.2524 0.0769344L25.3364 0.0489582L25.4673 0H25.7916C26.0811 0.0272767 26.3361 0.184643 26.4693 0.419642L28.1783 3.54598C28.3015 3.77468 28.541 3.93344 28.8175 3.97191L32.6452 4.47618C32.9687 4.51815 33.239 4.72097 33.3461 5.00073C33.447 5.2812 33.36 5.58893 33.1227 5.79106L30.2423 8.26695Z" fill="#FFC327"/>
<path d="M47.7013 8.26695C47.5018 8.4425 47.4102 8.69638 47.4556 8.94537L48.1403 12.3864C48.1981 12.6781 48.0625 12.9732 47.7937 13.1418C47.5303 13.3166 47.1799 13.3376 46.8926 13.1977L43.4816 11.5821C43.363 11.5248 43.2313 11.494 43.0965 11.4905H42.8878C42.8154 11.5003 42.7445 11.5213 42.6798 11.5534L39.268 13.1768C39.0993 13.2537 38.9083 13.281 38.7212 13.2537C38.2653 13.1754 37.961 12.7809 38.0358 12.3648L38.7212 8.92369C38.7666 8.6726 38.675 8.41732 38.4755 8.23897L35.6945 5.79106C35.4619 5.58614 35.381 5.2784 35.4873 5.00073C35.5905 4.72377 35.8539 4.52164 36.172 4.47618L39.9997 3.97191C40.2908 3.94464 40.5465 3.78377 40.6774 3.54598L42.3641 0.405654C42.4041 0.335714 42.4557 0.271369 42.5181 0.216815L42.5874 0.167857C42.6236 0.131488 42.6652 0.101414 42.7114 0.0769344L42.7954 0.0489582L42.9263 0H43.2505C43.5401 0.0272767 43.795 0.184643 43.9283 0.419642L45.6373 3.54598C45.7605 3.77468 46 3.93344 46.2765 3.97191L50.1042 4.47618C50.4277 4.51815 50.698 4.72097 50.8051 5.00073C50.906 5.2812 50.8189 5.58893 50.5817 5.79106L47.7013 8.26695Z" fill="#FFC327"/>
<path opacity="0.4" d="M65.161 8.26695C64.9616 8.4425 64.8699 8.69638 64.9153 8.94537L65.6 12.3864C65.6578 12.6781 65.5222 12.9732 65.2535 13.1418C64.9901 13.3166 64.6396 13.3376 64.3524 13.1977L60.9413 11.5821C60.8227 11.5248 60.691 11.494 60.5562 11.4905H60.3475C60.2751 11.5003 60.2043 11.5213 60.1396 11.5534L56.7277 13.1768C56.5591 13.2537 56.3681 13.281 56.1809 13.2537C55.725 13.1754 55.4208 12.7809 55.4955 12.3648L56.1809 8.92369C56.2264 8.6726 56.1347 8.41732 55.9352 8.23897L53.1542 5.79106C52.9216 5.58613 52.8407 5.2784 52.947 5.00073C53.0502 4.72377 53.3136 4.52164 53.6317 4.47618L57.4594 3.97191C57.7505 3.94464 58.0062 3.78377 58.1371 3.54598L59.8238 0.405654C59.8638 0.335714 59.9154 0.271369 59.9778 0.216815L60.0471 0.167857C60.0833 0.131488 60.1249 0.101413 60.1711 0.0769344L60.2551 0.0489582L60.386 0H60.7103C60.9998 0.0272767 61.2548 0.184642 61.388 0.419642L63.097 3.54598C63.2202 3.77468 63.4597 3.93344 63.7362 3.97191L67.5639 4.47618C67.8874 4.51815 68.1577 4.72097 68.2648 5.00073C68.3657 5.28119 68.2787 5.58893 68.0414 5.79106L65.161 8.26695Z" fill="#FFC327"/>
<path opacity="0.4" d="M82.6203 8.26695C82.4208 8.4425 82.3291 8.69638 82.3746 8.94537L83.0593 12.3864C83.117 12.6781 82.9815 12.9732 82.7127 13.1418C82.4493 13.3166 82.0989 13.3376 81.8116 13.1977L78.4005 11.5821C78.2819 11.5248 78.1502 11.494 78.0154 11.4905H77.8067C77.7343 11.5003 77.6635 11.5213 77.5988 11.5534L74.187 13.1768C74.0183 13.2537 73.8273 13.281 73.6401 13.2537C73.1842 13.1754 72.88 12.7809 72.9547 12.3648L73.6401 8.92369C73.6856 8.6726 73.5939 8.41732 73.3945 8.23897L70.6134 5.79106C70.3808 5.58614 70.2999 5.2784 70.4062 5.00073C70.5094 4.72377 70.7728 4.52164 71.0909 4.47618L74.9186 3.97191C75.2097 3.94464 75.4654 3.78377 75.5964 3.54598L77.283 0.405654C77.3231 0.335714 77.3747 0.271369 77.4371 0.216815L77.5064 0.167857C77.5426 0.131488 77.5842 0.101414 77.6304 0.0769344L77.7143 0.0489582L77.8452 0H78.1695C78.4591 0.0272767 78.714 0.184643 78.8472 0.419642L80.5562 3.54598C80.6794 3.77468 80.919 3.93344 81.1955 3.97191L85.0232 4.47618C85.3466 4.51815 85.617 4.72097 85.724 5.00073C85.8249 5.2812 85.7379 5.58893 85.5007 5.79106L82.6203 8.26695Z" fill="#FFC327"/>
</svg>
